<?xml version="1.0" encoding="UTF-8"?>
<svg id="Capa_1" data-name="Capa 1" xmlns="http://www.w3.org/2000/svg" viewBox="0 0 51.58 51.98">
  <defs>
    <style>
      .cls-1 {
        fill: #0a7ac0;
      }

      .cls-2 {
        fill: #fff;
      }

      .cls-3 {
        fill: #143f70;
      }
    </style>
  </defs>
  <circle class="cls-1" cx="25.79" cy="27.04" r="17.74"/>
  <path class="cls-3" d="M25.79,48.44c-11.8,0-21.4-9.6-21.4-21.4S13.99,5.64,25.79,5.64s21.4,9.6,21.4,21.4-9.6,21.4-21.4,21.4ZM25.79,6.64C14.54,6.64,5.39,15.79,5.39,27.04s9.15,20.4,20.4,20.4,20.4-9.15,20.4-20.4S37.04,6.64,25.79,6.64Z"/>
  <path class="cls-3" d="M25.79,34.99c-7.49,0-13.83-5.56-15.59-7.27-.27-.26-.42-.61-.42-.98s.15-.72.42-.98c1.77-1.71,8.1-7.27,15.59-7.27s13.83,5.56,15.59,7.27h0c.27.26.42.61.42.98s-.15.72-.42.98c-1.76,1.71-8.1,7.27-15.59,7.27ZM25.79,19.5c-7.11,0-13.2,5.35-14.9,6.99-.07.07-.11.16-.11.26s.04.19.11.26c1.7,1.64,7.78,6.99,14.9,6.99s13.2-5.35,14.9-6.99c.07-.07.11-.16.11-.26s-.04-.19-.11-.26h0c-1.7-1.64-7.78-6.99-14.9-6.99Z"/>
  <path class="cls-3" d="M25.75,32.54c-3.21,0-5.83-2.62-5.83-5.83s2.61-5.83,5.83-5.83,5.83,2.62,5.83,5.83-2.61,5.83-5.83,5.83ZM25.75,21.88c-2.66,0-4.83,2.17-4.83,4.83s2.17,4.83,4.83,4.83,4.83-2.17,4.83-4.83-2.17-4.83-4.83-4.83Z"/>
  <path class="cls-3" d="M25.75,29.44c-1.51,0-2.74-1.23-2.74-2.74s1.23-2.74,2.74-2.74,2.74,1.23,2.74,2.74-1.23,2.74-2.74,2.74ZM25.75,24.97c-.96,0-1.74.78-1.74,1.74s.78,1.74,1.74,1.74,1.74-.78,1.74-1.74-.78-1.74-1.74-1.74Z"/>
  <g>
    <circle class="cls-2" cx="28.79" cy="33.24" r="6.36"/>
    <path class="cls-3" d="M28.79,40.1c-3.78,0-6.86-3.08-6.86-6.86s3.08-6.86,6.86-6.86,6.86,3.08,6.86,6.86-3.08,6.86-6.86,6.86ZM28.79,27.38c-3.23,0-5.86,2.63-5.86,5.86s2.63,5.86,5.86,5.86,5.86-2.63,5.86-5.86-2.63-5.86-5.86-5.86Z"/>
  </g>
  <path class="cls-3" d="M29.23,35.98c-.12,0-.23-.04-.32-.12l-2.87-2.38c-.21-.18-.24-.49-.07-.7.18-.21.49-.24.7-.07l2.32,1.92,1.75-4.91c.09-.26.38-.39.64-.3.26.09.4.38.3.64l-1.99,5.58c-.05.15-.18.27-.34.31-.04.01-.09.02-.13.02Z"/>
</svg>