<?xml version="1.0" encoding="UTF-8"?>
<svg id="Capa_1" data-name="Capa 1" xmlns="http://www.w3.org/2000/svg" viewBox="0 0 51.58 51.98">
  <defs>
    <style>
      .cls-1 {
        fill: #0a7ac0;
      }

      .cls-2 {
        fill: #192845;
      }
    </style>
  </defs>
  <circle class="cls-1" cx="25.07" cy="27.08" r="17.74"/>
  <path class="cls-2" d="M25.07,48.48c-11.8,0-21.4-9.6-21.4-21.4S13.27,5.68,25.07,5.68s21.4,9.6,21.4,21.4-9.6,21.4-21.4,21.4ZM25.07,6.68C13.82,6.68,4.67,15.83,4.67,27.08s9.15,20.4,20.4,20.4,20.4-9.15,20.4-20.4S36.32,6.68,25.07,6.68Z"/>
  <g>
    <path class="cls-2" d="M25.92,40.07h-1.71c-3.18,0-5.76-2.59-5.76-5.76v-12.99c0-3.18,2.58-5.76,5.76-5.76h1.71c3.18,0,5.76,2.58,5.76,5.76v12.99c0,3.18-2.58,5.76-5.76,5.76ZM24.22,16.43c-2.69,0-4.88,2.19-4.88,4.88v12.99c0,2.69,2.19,4.89,4.88,4.89h1.71c2.69,0,4.88-2.19,4.88-4.89v-12.99c0-2.69-2.19-4.88-4.88-4.88h-1.71Z"/>
    <path class="cls-2" d="M25,36.11c-1.49,0-2.71-1.21-2.71-2.71s1.21-2.7,2.71-2.7,2.7,1.21,2.7,2.7-1.21,2.71-2.7,2.71ZM25,31.57c-1.01,0-1.83.82-1.83,1.83s.82,1.83,1.83,1.83,1.83-.82,1.83-1.83-.82-1.83-1.83-1.83Z"/>
    <path class="cls-2" d="M25,23.9c-1.49,0-2.71-1.21-2.71-2.71s1.21-2.7,2.71-2.7,2.7,1.21,2.7,2.7-1.21,2.71-2.7,2.71ZM25,19.37c-1.01,0-1.83.82-1.83,1.83s.82,1.83,1.83,1.83,1.83-.82,1.83-1.83-.82-1.83-1.83-1.83Z"/>
  </g>
  <rect class="cls-2" x="19.33" y="25.45" width="11.71" height="1"/>
</svg>