<?xml version="1.0" encoding="UTF-8"?>
<svg id="Capa_1" xmlns="http://www.w3.org/2000/svg" version="1.1" viewBox="0 0 71.16 44.04">
  <!-- Generator: Adobe Illustrator 30.3.0, SVG Export Plug-In . SVG Version: 2.1.3 Build 182)  -->
  <defs>
    <style>
      .st0 {
        fill: #47a2db;
      }
    </style>
  </defs>
  <path class="st0" d="M26.69,24.75c.46-.51.7-1.15.73-1.79,0-.06,0-.12,0-.19,0-.06,0-.12,0-.19-.03-.64-.26-1.27-.73-1.79L14.1,6.93l-2.3,2.08c-1.08.98-1.16,2.64-.18,3.72l9.12,10.05-9.12,10.05c-.98,1.08-.89,2.74.18,3.72l2.3,2.08,12.59-13.89Z"/>
  <path class="st0" d="M46.13,24.75c.46-.51.7-1.15.73-1.79,0-.06,0-.12,0-.19,0-.06,0-.12,0-.19-.03-.64-.26-1.27-.73-1.79l-12.59-13.89-2.3,2.08c-1.08.98-1.16,2.64-.18,3.72l9.12,10.05-9.12,10.05c-.98,1.08-.89,2.74.18,3.72l2.3,2.08,12.59-13.89Z"/>
  <path class="st0" d="M65.56,24.75c.46-.51.7-1.15.73-1.79,0-.06,0-.12,0-.19,0-.06,0-.12,0-.19-.03-.64-.26-1.27-.73-1.79l-12.59-13.89-2.3,2.08c-1.08.98-1.16,2.64-.18,3.72l9.12,10.05-9.12,10.05c-.98,1.08-.89,2.74.18,3.72l2.3,2.08,12.59-13.89Z"/>
</svg>