<?xml version="1.0" encoding="UTF-8"?>
<svg id="Capa_1" xmlns="http://www.w3.org/2000/svg" version="1.1" xmlns:xlink="http://www.w3.org/1999/xlink" viewBox="0 0 222.09 46.98">
  <!-- Generator: Adobe Illustrator 30.3.0, SVG Export Plug-In . SVG Version: 2.1.3 Build 182)  -->
  <defs>
    <style>
      .st0 {
        fill: url(#Degradado_sin_nombre_71);
      }

      .st1 {
        fill: #095599;
      }
    </style>
    <radialGradient id="Degradado_sin_nombre_71" data-name="Degradado sin nombre 71" cx="176.4" cy="21.61" fx="176.4" fy="21.61" r="17.57" gradientUnits="userSpaceOnUse">
      <stop offset="0" stop-color="#075296"/>
      <stop offset=".98" stop-color="#1b3b64"/>
    </radialGradient>
  </defs>
  <path class="st1" d="M18.19,35.57V14.5h11.67c5,0,8.14,2.86,8.14,7.86s-3.14,7.89-8.14,7.89h-5.75v5.31h-5.91ZM24.1,19.82v5.13h5.09c2.08,0,2.92-.41,2.92-2.58s-.85-2.55-2.92-2.55h-5.09ZM39.26,35.57V14.5h12.29c5.57,0,8.49,2.33,8.49,6.45,0,3.33-1.67,5.31-5.69,5.82,0,0,2.37.31,3.65,3.52l2.61,5.28h-6.82l-2.52-5.16c-.75-1.57-1.38-2.01-3.68-2.01h-2.42v7.17h-5.91ZM45.17,24h6.32c1.73,0,2.36-.31,2.36-2.11,0-1.67-.63-2.08-2.36-2.08h-6.32v4.18ZM61.23,25.04c0-6.57,4.34-10.85,11.67-10.85s11.79,4.28,11.79,10.85-4.28,10.85-11.79,10.85-11.67-4.28-11.67-10.85ZM78.4,25.04c0-4.18-1.23-5.19-5.5-5.19s-5.38,1.01-5.38,5.19,1.1,5.19,5.38,5.19,5.5-1.01,5.5-5.19ZM98.23,35.83c-3.02,0-5.61-1.06-7.77-3.18-2.16-2.12-3.24-4.68-3.24-7.68s1.08-5.57,3.24-7.71c2.16-2.13,4.75-3.2,7.77-3.2s5.62,1.07,7.79,3.2c2.17,2.13,3.25,4.7,3.25,7.71v10.86h-11.04ZM103.63,24.97c0-1.52-.52-2.83-1.57-3.92-1.04-1.09-2.33-1.64-3.85-1.64s-2.81.55-3.85,1.64c-1.04,1.09-1.57,2.4-1.57,3.92s.53,2.8,1.58,3.88c1.05,1.08,2.33,1.63,3.84,1.63h5.42v-5.51ZM122.47,35.82c-3.07,0-6.07-1.16-8.22-3.36s-3.06-4.6-3.06-7.52,1.08-5.59,3.23-7.73c2.16-2.14,4.75-3.21,7.78-3.21h2.76c2.73,0,3.66,3.78,1.18,4.91-.03.02-.07.03-.1.05-.66.28-1.38.41-2.09.41h-1.75c-1.51,0-2.79.55-3.86,1.66-1.07,1.1-1.6,2.41-1.6,3.91s.53,2.8,1.6,3.89c1.07,1.09,2.36,1.63,3.86,1.63h1.75c.72,0,1.43.12,2.09.41.03.02.07.03.1.05,2.49,1.13,1.55,4.91-1.18,4.91h-2.5ZM145.93,31.86c-.93-.92-2.04-1.38-3.34-1.38h-1.97c-1.56,0-2.87-.58-3.94-1.74-.96-1.05-1.46-2.45-1.46-3.87v-4.42h5.26c1.48,0,2.68-1.2,2.68-2.68s-1.2-2.68-2.68-2.68h-5.26v-3.44c0-1.56-1.3-2.81-2.86-2.75h-.07c-1.48.06-2.65,1.27-2.65,2.76v13.32c0,2.92,1.02,5.43,3.05,7.51,2.14,2.19,5.13,3.35,8.2,3.35h6.44c0-1.72-.47-3.05-1.4-3.97ZM148.69,16.5v16.18c0,1.74,1.41,3.15,3.15,3.15h2.42v-19.33c0-1.22-.99-2.21-2.21-2.21h-1.16c-1.22,0-2.21.99-2.21,2.21ZM184.99,35.46c-3.02,0-5.61-1.06-7.77-3.18-2.16-2.12-3.24-4.68-3.24-7.68s1.08-5.57,3.24-7.71c2.16-2.13,4.75-3.2,7.77-3.2s5.62,1.07,7.79,3.2c2.17,2.13,3.25,4.7,3.25,7.71v10.86h-11.04ZM190.4,24.6c0-1.52-.52-2.83-1.57-3.92-1.04-1.09-2.33-1.64-3.85-1.64s-2.81.55-3.85,1.64c-1.04,1.09-1.57,2.4-1.57,3.92s.53,2.8,1.58,3.88c1.05,1.08,2.33,1.63,3.84,1.63h5.42v-5.51Z"/>
  <path class="st0" d="M165.11,35.9c-.29,0-.58-.05-.86-.14-.78-.26-1.4-.85-1.7-1.61l-6.18-16.22c-.58-1.49-.43-3.15,1.15-3.59,2.34-.65,3.55.14,4.07,1.47l3.68,10.23c2.57-7.45,7.42-19.73,21.3-18.66,2.32.18,5.35,1.09,8.1,3.02,2.61,1.83,2.74,5.66.23,7.63h0c-2.39-3.74-6.77-5.03-8.75-5.18-9.54-.73-13.03,7.16-16.05,16.02-1.19,3.47-1.9,5.57-3.55,6.6-.44.28-.95.42-1.46.42Z"/>
</svg>