<?xml version="1.0" encoding="UTF-8"?>
<svg id="Capa_1" data-name="Capa 1" xmlns="http://www.w3.org/2000/svg" xmlns:xlink="http://www.w3.org/1999/xlink" viewBox="0 0 317.11 76.89">
  <defs>
    <style>
      .cls-1 {
        fill: #fff;
      }

      .cls-2 {
        fill: url(#Degradado_sin_nombre_185);
      }
    </style>
    <radialGradient id="Degradado_sin_nombre_185" data-name="Degradado sin nombre 185" cx="268.48" cy="37.27" fx="268.48" fy="37.27" r="28.58" gradientUnits="userSpaceOnUse">
      <stop offset=".02" stop-color="#045195"/>
      <stop offset="1" stop-color="#0070a9"/>
    </radialGradient>
  </defs>
  <path class="cls-1" d="M11.16,59.98V25.72h18.97c8.13,0,13.25,4.65,13.25,12.78s-5.11,12.84-13.25,12.84h-9.36v8.64h-9.61ZM20.78,34.36v8.34h8.29c3.38,0,4.76-.66,4.76-4.19s-1.38-4.14-4.76-4.14h-8.29ZM45.43,59.98V25.72h20c9.05,0,13.81,3.78,13.81,10.48,0,5.42-2.71,8.64-9.26,9.46,0,0,3.85.5,5.93,5.73l4.25,8.59h-11.1l-4.09-8.39c-1.23-2.56-2.25-3.27-5.98-3.27h-3.94v11.66h-9.61ZM55.04,41.16h10.28c2.81,0,3.84-.51,3.84-3.43,0-2.71-1.02-3.38-3.84-3.38h-10.28v6.8ZM81.17,42.85c0-10.69,7.06-17.64,18.97-17.64s19.18,6.96,19.18,17.64-6.96,17.64-19.18,17.64-18.97-6.96-18.97-17.64ZM109.1,42.85c0-6.8-2-8.44-8.95-8.44s-8.74,1.64-8.74,8.44,1.79,8.44,8.74,8.44,8.95-1.64,8.95-8.44ZM141.35,60.4c-4.92,0-9.13-1.72-12.64-5.17-3.51-3.44-5.27-7.61-5.27-12.5s1.76-9.07,5.27-12.54c3.51-3.47,7.73-5.21,12.64-5.21s9.14,1.74,12.66,5.21c3.53,3.47,5.29,7.65,5.29,12.54v17.66h-17.95ZM150.13,42.74c0-2.47-.85-4.6-2.55-6.37-1.7-1.78-3.79-2.67-6.26-2.67s-4.57.89-6.26,2.67c-1.7,1.78-2.55,3.9-2.55,6.37s.85,4.55,2.57,6.31c1.71,1.76,3.79,2.64,6.24,2.64h8.81v-8.96ZM180.77,60.39c-5,0-9.87-1.89-13.36-5.46s-4.98-7.47-4.98-12.24,1.75-9.09,5.26-12.56c3.51-3.48,7.72-5.22,12.65-5.22h4.49c4.44,0,5.96,6.15,1.92,7.99-.06.03-.11.05-.17.07-1.07.46-2.24.66-3.4.66h-2.84c-2.45,0-4.54.9-6.28,2.69-1.74,1.8-2.61,3.92-2.61,6.37s.87,4.56,2.61,6.32c1.74,1.77,3.83,2.65,6.28,2.65h2.84c1.16,0,2.33.2,3.4.66.06.02.11.05.17.07,4.04,1.84,2.53,7.99-1.92,7.99h-4.06ZM218.93,53.94c-1.51-1.5-3.33-2.25-5.44-2.25h-3.21c-2.53,0-4.67-.95-6.41-2.84-1.57-1.7-2.38-3.98-2.38-6.29v-7.19h8.56c2.4,0,4.35-1.95,4.35-4.35s-1.95-4.35-4.35-4.35h-8.56v-5.6c0-2.54-2.11-4.57-4.65-4.48h-.12c-2.41.09-4.31,2.07-4.31,4.48v21.66c0,4.75,1.66,8.83,4.97,12.21,3.49,3.57,8.35,5.45,13.34,5.45h10.48c0-2.81-.76-4.96-2.27-6.46ZM223.42,26.86v31.41c0,1.17.95,2.13,2.13,2.13h6.94V26.86c0-.82-.67-1.49-1.49-1.49h-6.09c-.82,0-1.49.67-1.49,1.49ZM282.46,59.8c-4.92,0-9.13-1.72-12.64-5.17-3.51-3.44-5.27-7.61-5.27-12.5s1.76-9.07,5.27-12.54c3.51-3.47,7.73-5.21,12.64-5.21s9.14,1.74,12.66,5.21c3.53,3.47,5.29,7.65,5.29,12.54v17.66h-17.95ZM291.25,42.14c0-2.47-.85-4.6-2.55-6.37-1.7-1.78-3.79-2.67-6.26-2.67s-4.57.89-6.26,2.67c-1.7,1.78-2.55,3.9-2.55,6.37s.85,4.55,2.57,6.31c1.71,1.76,3.79,2.64,6.24,2.64h8.81v-8.96Z"/>
  <path class="cls-2" d="M250.13,60.51c-.47,0-.94-.07-1.4-.22-1.26-.42-2.28-1.38-2.76-2.62l-10.05-26.38c-.95-2.43-.7-5.13,1.88-5.84,3.81-1.06,5.78.22,6.62,2.4l5.99,16.64c4.19-12.12,12.06-32.09,34.64-30.35,3.77.29,8.69,1.78,13.17,4.92,4.25,2.98,4.46,9.2.38,12.4h0c-3.88-6.08-11.02-8.18-14.23-8.42-15.51-1.18-21.19,11.65-26.11,26.05-1.93,5.65-3.09,9.06-5.77,10.74-.72.45-1.54.69-2.38.69Z"/>
</svg>