<?xml version="1.0" encoding="UTF-8"?>
<svg id="Capa_1" data-name="Capa 1" xmlns="http://www.w3.org/2000/svg" viewBox="0 0 53.62 49.75">
  <defs>
    <style>
      .cls-1 {
        fill: none;
        stroke: #153f6f;
        stroke-miterlimit: 10;
      }

      .cls-2 {
        fill: #153f6f;
      }

      .cls-3 {
        fill: #0faaff;
      }
    </style>
  </defs>
  <circle class="cls-3" cx="26.32" cy="25.86" r="17.74"/>
  <circle class="cls-1" cx="26.3" cy="25.84" r="20.9"/>
  <path class="cls-2" d="M29.27,14.45h-6.41c-1.68,0-3.05,1.37-3.05,3.05v15.55c0,1.68,1.37,3.05,3.05,3.05h6.41c1.68,0,3.05-1.37,3.05-3.05v-15.55c0-1.68-1.37-3.05-3.05-3.05ZM31.5,17.5v3.76h-5.01v-5.99h2.79c1.22,0,2.22,1,2.22,2.22ZM20.64,27.62v-5.52h5.01v5.52h-5.01ZM26.48,22.1h5.01v5.52h-5.01v-5.52ZM22.86,15.28h2.79v5.99h-5.01v-3.76c0-1.22,1-2.22,2.22-2.22ZM29.27,35.27h-6.41c-1.22,0-2.22-1-2.22-2.22v-4.6h10.85v4.6c0,1.22-1,2.22-2.22,2.22Z"/>
</svg>