<?xml version="1.0" encoding="UTF-8"?>
<svg id="Capa_1" data-name="Capa 1" xmlns="http://www.w3.org/2000/svg" viewBox="0 0 53.62 49.75">
  <defs>
    <style>
      .cls-1 {
        stroke: #55dfff;
      }

      .cls-1, .cls-2 {
        fill: none;
        stroke-miterlimit: 10;
      }

      .cls-2 {
        stroke: #192845;
      }

      .cls-3 {
        fill: #015498;
      }
    </style>
  </defs>
  <circle class="cls-3" cx="26.81" cy="26.58" r="17.74"/>
  <circle class="cls-2" cx="26.81" cy="26.58" r="20.9"/>
  <g>
    <path class="cls-1" d="M35.24,22.43c-3.98-1.24-8.8-1.39-12.92-.86-1.26.16-2.44.42-3.64.77-1.36.44-2.74.97-3.77,2.02v-6.43c.25-.62.94-1.14,1.53-1.47,1.91-1.07,4.6-1.58,6.8-1.81,2.67-.28,5.34-.25,8,.1,1.8.23,3.81.68,5.44,1.44.78.36,1.72.95,2.05,1.74v6.42c-.45-.44-.9-.76-1.41-1.06-.67-.36-1.34-.63-2.07-.87Z"/>
    <path class="cls-1" d="M33.9,37.62c-2.8,3.05-7.35,3.89-11.12,2.2-1.53-.69-2.84-1.74-3.8-3.12s-1.53-2.92-1.53-4.58v-4.79c1.29-1.11,3.1-1.63,4.74-1.98,3.09-.59,6.42-.58,9.5.06,1.57.36,3.25.88,4.48,1.93v4.66c-.01,2.1-.86,4.08-2.28,5.62ZM32.14,32.8c0-2.94-2.38-5.33-5.33-5.33s-5.33,2.38-5.33,5.33,2.38,5.33,5.33,5.33,5.33-2.38,5.33-5.33Z"/>
    <path class="cls-1" d="M34.36,25.47c-3.55-1.4-8.22-1.53-11.96-.88-1.18.21-2.29.52-3.39.98-.7.3-1.34.67-1.93,1.14-.22.17-.33.37-.33.65v.82c-.6-.31-1.1-.67-1.49-1.17-.47-.6-.47-1.36-.01-1.97.75-.99,2.28-1.63,3.49-2,3.63-1.12,8.12-1.28,11.89-.86,2.29.26,6.34,1.04,7.74,2.85.49.63.45,1.42-.05,2.03-.39.47-.88.82-1.45,1.12v-.88c0-.21-.11-.4-.27-.54-.68-.56-1.42-.97-2.25-1.3Z"/>
    <path class="cls-1" d="M26.81,28.2c-2.54,0-4.6,2.06-4.6,4.6s2.06,4.6,4.6,4.6,4.6-2.06,4.6-4.6-2.06-4.6-4.6-4.6ZM26.81,35.33c-1.4,0-2.54-1.14-2.54-2.54s1.14-2.54,2.54-2.54,2.54,1.14,2.54,2.54-1.14,2.54-2.54,2.54Z"/>
  </g>
</svg>