<?xml version="1.0" encoding="UTF-8"?>
<svg id="Capa_1" data-name="Capa 1" xmlns="http://www.w3.org/2000/svg" viewBox="0 0 53.62 49.75">
  <defs>
    <style>
      .cls-1 {
        fill: #fff;
      }

      .cls-2 {
        stroke: #55dfff;
      }

      .cls-2, .cls-3 {
        fill: none;
        stroke-miterlimit: 10;
      }

      .cls-3 {
        stroke: #153f6f;
      }

      .cls-4 {
        fill: #153f6f;
      }
    </style>
  </defs>
  <circle class="cls-2" cx="26.98" cy="24.49" r="17.74"/>
  <circle class="cls-3" cx="26.95" cy="24.49" r="20.9"/>
  <g>
    <path class="cls-4" d="M28.65,32.11h-7.7c-1.36,0-2.46-1.11-2.46-2.46v-15.98c0-1.36,1.11-2.46,2.46-2.46h7.7c1.36,0,2.46,1.11,2.46,2.46v15.98c0,1.36-1.11,2.46-2.46,2.46ZM20.94,11.88c-.99,0-1.79.8-1.79,1.79v15.98c0,.99.8,1.79,1.79,1.79h7.7c.99,0,1.79-.8,1.79-1.79v-15.98c0-.99-.8-1.79-1.79-1.79h-7.7Z"/>
    <rect class="cls-4" x="18.82" y="13.9" width="11.95" height=".68"/>
    <path class="cls-4" d="M26.26,13.14h-2.96c-.19,0-.34-.15-.34-.34s.15-.34.34-.34h2.96c.19,0,.34.15.34.34s-.15.34-.34.34Z"/>
    <rect class="cls-4" x="18.82" y="28.5" width="11.95" height=".68"/>
    <g>
      <path class="cls-1" d="M23.19,30.25l3.16,5.63s1.49,2.7,4.77,2.47c0,0,4.2-.17,4.77-3.39v-5.57s.03-1.58-1.78-1.03c0,0-.34-1.67-2.18-.86,0,0-.83-1.41-2.38-.34v-3.22s.08-1.41-1.47-1.38c-1.08.02-1.08,1.38-1.08,1.38l.04,7.97-1.93-2.74s-.83-1.42-1.92-.8c-.94.53,0,1.9,0,1.9Z"/>
      <path class="cls-4" d="M30.71,38.7c-3.15,0-4.6-2.55-4.66-2.66l-3.15-5.62c-.09-.14-.6-.94-.44-1.64.07-.31.27-.56.56-.72,1.09-.61,2.03.34,2.38.93l1.29,1.84-.04-6.9c0-.59.29-1.7,1.41-1.72.57,0,1.04.15,1.36.49.49.51.46,1.22.45,1.25v2.63c.39-.16.77-.2,1.14-.12.49.11.83.41,1.02.63.59-.21,1.1-.2,1.53.02.41.21.64.58.76.85.55-.11,1-.04,1.34.22.57.43.56,1.19.56,1.22v5.57c-.62,3.5-5.05,3.73-5.09,3.73-.14,0-.28.01-.42.01ZM23.74,28.54c-.12,0-.25.03-.39.11-.13.07-.2.16-.23.29-.09.38.23.95.34,1.12,0,0,.01.02.02.03l3.16,5.63c.06.1,1.44,2.51,4.45,2.3.05,0,3.94-.2,4.46-3.11v-5.52s0-.46-.3-.68c-.27-.2-.72-.13-1.05-.03-.09.03-.19.02-.27-.03s-.14-.13-.16-.22c0,0-.12-.51-.52-.72-.3-.15-.7-.12-1.19.1-.16.07-.34,0-.43-.14,0,0-.28-.45-.77-.55-.34-.07-.72.03-1.13.32-.1.07-.24.08-.35.02-.11-.06-.18-.17-.18-.3v-3.22s.02-.47-.27-.76c-.19-.19-.46-.29-.86-.28-.72.01-.75.94-.75,1.04l.04,7.97c0,.15-.09.28-.23.32-.14.04-.29,0-.38-.13l-1.93-2.74c-.03-.06-.49-.81-1.09-.81Z"/>
    </g>
    <path class="cls-4" d="M29.54,29.75c-.19,0-.34-.15-.34-.34v-2.5c0-.19.15-.34.34-.34s.34.15.34.34v2.5c0,.19-.15.34-.34.34Z"/>
    <path class="cls-4" d="M31.92,29.75c-.19,0-.34-.15-.34-.34v-1.93c0-.19.15-.34.34-.34s.34.15.34.34v1.93c0,.19-.15.34-.34.34Z"/>
    <path class="cls-4" d="M34.1,29.79c-.19,0-.34-.15-.34-.34v-1.01c0-.19.15-.34.34-.34s.34.15.34.34v1.01c0,.19-.15.34-.34.34Z"/>
  </g>
</svg>