<?xml version="1.0" encoding="UTF-8"?>
<svg id="Capa_1" data-name="Capa 1" xmlns="http://www.w3.org/2000/svg" viewBox="0 0 53.62 49.75">
  <defs>
    <style>
      .cls-1 {
        fill: none;
        stroke: #153f6f;
        stroke-miterlimit: 10;
      }

      .cls-2 {
        fill: #153f6f;
      }

      .cls-3 {
        fill: #0faaff;
      }
    </style>
  </defs>
  <circle class="cls-3" cx="26.83" cy="24.75" r="17.74"/>
  <circle class="cls-1" cx="26.81" cy="24.48" r="20.9"/>
  <path class="cls-2" d="M28.6,21.47c1.24-.7,2.09-2.02,2.09-3.55,0-2.26-1.84-4.09-4.09-4.09s-4.09,1.84-4.09,4.09c0,1.53.85,2.84,2.09,3.55-2.47.84-4.26,3.15-4.26,5.9v6.26h12.51v-6.26c0-2.75-1.79-5.06-4.26-5.9ZM23.34,17.93c0-1.8,1.46-3.26,3.26-3.26s3.26,1.46,3.26,3.26c0,1.68-1.28,3.05-2.92,3.22-.12,0-.23-.03-.34-.03s-.23.03-.34.03c-1.63-.18-2.91-1.55-2.91-3.22ZM32.03,32.8h-10.85v-5.43c0-2.87,2.25-5.21,5.08-5.39.12,0,.23.03.34.03s.23-.03.34-.03c2.83.18,5.08,2.52,5.08,5.39v5.43Z"/>
</svg>