<?xml version="1.0" encoding="UTF-8"?>
<svg id="Capa_1" data-name="Capa 1" xmlns="http://www.w3.org/2000/svg" viewBox="0 0 53.62 49.75">
  <defs>
    <style>
      .cls-1 {
        fill: none;
        stroke: #192845;
        stroke-miterlimit: 10;
      }

      .cls-2 {
        fill: #55dfff;
      }

      .cls-3 {
        fill: #015498;
      }
    </style>
  </defs>
  <circle class="cls-3" cx="26.81" cy="24.82" r="19.56"/>
  <circle class="cls-1" cx="26.81" cy="24.82" r="23.05"/>
  <g>
    <path class="cls-2" d="M39.75,31.23H14.47c-2.08,0-3.78-1.7-3.78-3.78v-5.55c0-2.08,1.7-3.78,3.78-3.78h25.28c2.08,0,3.78,1.7,3.78,3.78v5.55c0,2.08-1.7,3.78-3.78,3.78ZM14.47,19.01c-1.59,0-2.89,1.3-2.89,2.89v5.55c0,1.59,1.3,2.89,2.89,2.89h25.28c1.59,0,2.89-1.3,2.89-2.89v-5.55c0-1.59-1.3-2.89-2.89-2.89H14.47Z"/>
    <path class="cls-2" d="M36.98,27.66c-1.53,0-2.77-1.24-2.77-2.77s1.24-2.77,2.77-2.77,2.77,1.24,2.77,2.77-1.24,2.77-2.77,2.77ZM36.98,23.01c-1.04,0-1.88.84-1.88,1.88s.84,1.88,1.88,1.88,1.88-.84,1.88-1.88-.84-1.88-1.88-1.88Z"/>
    <g>
      <path class="cls-2" d="M14.62,27.23v-4.28h1.96l1.65,2.47v-2.47h1.61v4.28h-1.86l-1.8-2.51v2.51h-1.56Z"/>
      <path class="cls-2" d="M24.34,22.94c.37,0,.67.02.89.05.22.04.4.09.52.17.16.09.28.22.37.38.08.16.13.34.13.55,0,.25-.06.48-.19.67s-.3.33-.52.42c.19.08.32.18.4.29.08.12.12.32.13.62,0,.03,0,.08,0,.14.03.56.1.87.23.93v.07h-1.84c-.06-.09-.09-.27-.09-.53,0-.15-.01-.27-.02-.35-.02-.16-.07-.27-.16-.33-.09-.06-.24-.1-.44-.1h-.99v1.31h-1.68v-4.28h3.26ZM22.77,24.79h.97c.25,0,.43-.03.53-.09s.15-.16.15-.3-.05-.24-.15-.29c-.1-.05-.29-.08-.58-.08h-.93v.76Z"/>
      <path class="cls-2" d="M28.42,27.23l-1.89-4.28h1.87l.91,2.87.96-2.87h1.86l-1.97,4.28h-1.73Z"/>
    </g>
  </g>
</svg>