<?xml version="1.0" encoding="UTF-8"?>
<svg id="Capa_1" data-name="Capa 1" xmlns="http://www.w3.org/2000/svg" viewBox="0 0 53.62 49.75">
  <defs>
    <style>
      .cls-1 {
        fill: none;
        stroke: #153f6f;
        stroke-miterlimit: 10;
      }

      .cls-2 {
        fill: #153f6f;
      }

      .cls-3 {
        fill: #0faaff;
      }
    </style>
  </defs>
  <circle class="cls-3" cx="26.83" cy="24.88" r="17.74"/>
  <circle class="cls-1" cx="26.81" cy="24.88" r="20.9"/>
  <g>
    <path class="cls-2" d="M27.72,37.73h-1.71c-3.18,0-5.76-2.59-5.76-5.76v-12.99c0-3.18,2.58-5.76,5.76-5.76h1.71c3.18,0,5.76,2.58,5.76,5.76v12.99c0,3.18-2.58,5.76-5.76,5.76ZM26.01,14.09c-2.69,0-4.88,2.19-4.88,4.88v12.99c0,2.69,2.19,4.89,4.88,4.89h1.71c2.69,0,4.88-2.19,4.88-4.89v-12.99c0-2.69-2.19-4.88-4.88-4.88h-1.71Z"/>
    <path class="cls-2" d="M26.79,33.76c-1.49,0-2.71-1.21-2.71-2.71s1.21-2.7,2.71-2.7,2.7,1.21,2.7,2.7-1.21,2.71-2.7,2.71ZM26.79,29.23c-1.01,0-1.83.82-1.83,1.83s.82,1.83,1.83,1.83,1.83-.82,1.83-1.83-.82-1.83-1.83-1.83Z"/>
  </g>
</svg>