<?xml version="1.0" encoding="UTF-8"?>
<svg id="Capa_1" data-name="Capa 1" xmlns="http://www.w3.org/2000/svg" viewBox="0 0 53.62 49.75">
  <defs>
    <style>
      .cls-1 {
        fill: #fff;
      }

      .cls-2 {
        fill: none;
        stroke: #153f6f;
        stroke-miterlimit: 10;
      }

      .cls-3 {
        fill: #153f6f;
      }

      .cls-4 {
        fill: #0faaff;
      }
    </style>
  </defs>
  <circle class="cls-1" cx="27.38" cy="26.31" r="23.44"/>
  <circle class="cls-4" cx="27.51" cy="26.02" r="17.74"/>
  <circle class="cls-2" cx="27.45" cy="25.84" r="20.9"/>
  <path class="cls-3" d="M34.78,37.62h-6.85c-.25,0-.45-.2-.45-.45V13.46c0-.25.2-.45.45-.45h6.85c.25,0,.45.2.45.45v23.71c0,.25-.2.45-.45.45ZM28.9,36.65h4.9c.25,0,.45-.2.45-.45V14.44c0-.25-.2-.45-.45-.45h-4.9c-.25,0-.45.2-.45.45v21.77c0,.25.2.45.45.45Z"/>
  <path class="cls-3" d="M26.47,37.62h-6.85c-.25,0-.45-.2-.45-.45V13.46c0-.25.2-.45.45-.45h6.85c.25,0,.45.2.45.45v23.71c0,.25-.2.45-.45.45ZM20.6,36.65h4.9c.25,0,.45-.2.45-.45V14.44c0-.25-.2-.45-.45-.45h-4.9c-.25,0-.45.2-.45.45v21.77c0,.25.2.45.45.45Z"/>
</svg>