<?xml version="1.0" encoding="UTF-8"?>
<svg id="Capa_1" data-name="Capa 1" xmlns="http://www.w3.org/2000/svg" viewBox="0 0 53.62 49.75">
  <defs>
    <style>
      .cls-1, .cls-2 {
        fill: none;
        stroke: #55dfff;
        stroke-miterlimit: 10;
      }

      .cls-3 {
        fill: #55dfff;
      }

      .cls-4 {
        fill: #153f6f;
      }

      .cls-2 {
        stroke-linecap: round;
      }
    </style>
  </defs>
  <g>
    <circle class="cls-4" cx="26.89" cy="24.9" r="17.74"/>
    <circle class="cls-1" cx="26.87" cy="24.88" r="20.9"/>
  </g>
  <path class="cls-3" d="M30.32,37.2h-6.85c-.25,0-.45-.2-.45-.45V13.04c0-.25.2-.45.45-.45h6.85c.25,0,.45.2.45.45v23.71c0,.25-.2.45-.45.45ZM24.44,36.23h4.9c.25,0,.45-.2.45-.45V14.02c0-.25-.2-.45-.45-.45h-4.9c-.25,0-.45.2-.45.45v21.77c0,.25.2.45.45.45Z"/>
  <g>
    <line class="cls-2" x1="35.35" y1="24.9" x2="41.48" y2="24.9"/>
    <line class="cls-2" x1="35.23" y1="28.73" x2="39.76" y2="30.82"/>
    <line class="cls-2" x1="35.08" y1="21.3" x2="39.91" y2="20.08"/>
  </g>
  <g>
    <line class="cls-2" x1="18.44" y1="25.82" x2="12.31" y2="25.82"/>
    <line class="cls-2" x1="18.7" y1="21.95" x2="13.89" y2="20.65"/>
    <line class="cls-2" x1="18.71" y1="29.41" x2="13.88" y2="30.64"/>
  </g>
</svg>