<?xml version="1.0" encoding="UTF-8"?>
<svg id="Capa_1" data-name="Capa 1" xmlns="http://www.w3.org/2000/svg" viewBox="0 0 53.62 49.75">
  <defs>
    <style>
      .cls-1 {
        stroke: #55dfff;
      }

      .cls-1, .cls-2 {
        fill: none;
        stroke-miterlimit: 10;
      }

      .cls-2 {
        stroke: #153f6f;
      }

      .cls-3 {
        fill: #153f6f;
      }
    </style>
  </defs>
  <circle class="cls-1" cx="26.83" cy="26.02" r="17.74"/>
  <circle class="cls-2" cx="26.81" cy="26.02" r="20.9"/>
  <g>
    <g>
      <path class="cls-3" d="M27.69,39.01h-1.71c-3.18,0-5.76-2.59-5.76-5.76v-12.99c0-3.18,2.58-5.76,5.76-5.76h1.71c3.18,0,5.76,2.58,5.76,5.76v12.99c0,3.18-2.58,5.76-5.76,5.76ZM25.98,15.37c-2.69,0-4.88,2.19-4.88,4.88v12.99c0,2.69,2.19,4.89,4.88,4.89h1.71c2.69,0,4.88-2.19,4.88-4.89v-12.99c0-2.69-2.19-4.88-4.88-4.88h-1.71Z"/>
      <path class="cls-3" d="M26.76,35.05c-1.49,0-2.71-1.21-2.71-2.71s1.21-2.7,2.71-2.7,2.7,1.21,2.7,2.7-1.21,2.71-2.7,2.71ZM26.76,30.51c-1.01,0-1.83.82-1.83,1.83s.82,1.83,1.83,1.83,1.83-.82,1.83-1.83-.82-1.83-1.83-1.83Z"/>
      <path class="cls-3" d="M26.76,22.84c-1.49,0-2.71-1.21-2.71-2.71s1.21-2.7,2.71-2.7,2.7,1.21,2.7,2.7-1.21,2.71-2.7,2.71ZM26.76,18.31c-1.01,0-1.83.82-1.83,1.83s.82,1.83,1.83,1.83,1.83-.82,1.83-1.83-.82-1.83-1.83-1.83Z"/>
    </g>
    <rect class="cls-3" x="21.1" y="24.38" width="11.71" height="1"/>
  </g>
</svg>