<?xml version="1.0" encoding="UTF-8"?>
<svg id="Capa_1" data-name="Capa 1" xmlns="http://www.w3.org/2000/svg" viewBox="0 0 53.62 49.75">
  <defs>
    <style>
      .cls-1 {
        fill: none;
        stroke: #153f6f;
        stroke-miterlimit: 10;
      }

      .cls-2 {
        fill: #153f6f;
      }

      .cls-3 {
        fill: #0faaff;
      }
    </style>
  </defs>
  <circle class="cls-3" cx="26.83" cy="24.88" r="17.74"/>
  <circle class="cls-1" cx="26.81" cy="24.88" r="20.9"/>
  <g>
    <path class="cls-2" d="M32.8,33.74h-11.65c-1.9,0-3.44-1.54-3.44-3.44v-11.65c0-1.9,1.54-3.44,3.44-3.44h11.65c1.9,0,3.44,1.54,3.44,3.44v11.65c0,1.9-1.54,3.44-3.44,3.44ZM21.15,16.19c-1.36,0-2.47,1.1-2.47,2.46v11.65c0,1.36,1.11,2.46,2.47,2.46h11.65c1.36,0,2.47-1.1,2.47-2.46v-11.65c0-1.36-1.11-2.46-2.47-2.46h-11.65Z"/>
    <path class="cls-2" d="M31.24,31.16h-8.4c-1.37,0-2.48-1.11-2.48-2.48v-8.4c0-1.37,1.11-2.48,2.48-2.48h8.4c1.37,0,2.48,1.11,2.48,2.48v8.4c0,1.37-1.11,2.48-2.48,2.48ZM22.84,18.5c-.98,0-1.78.8-1.78,1.78v8.4c0,.98.8,1.78,1.78,1.78h8.4c.98,0,1.78-.8,1.78-1.78v-8.4c0-.98-.8-1.78-1.78-1.78h-8.4Z"/>
  </g>
</svg>