<?xml version="1.0" encoding="UTF-8"?>
<svg id="Capa_1" data-name="Capa 1" xmlns="http://www.w3.org/2000/svg" viewBox="0 0 53.62 49.75">
  <defs>
    <style>
      .cls-1 {
        stroke: #55dfff;
      }

      .cls-1, .cls-2 {
        fill: none;
        stroke-miterlimit: 10;
      }

      .cls-2 {
        stroke: #192845;
      }

      .cls-3 {
        fill: #015498;
      }
    </style>
  </defs>
  <circle class="cls-3" cx="26.81" cy="24.88" r="19.56"/>
  <circle class="cls-2" cx="26.81" cy="24.88" r="23.05"/>
  <path class="cls-1" d="M12.2,24.01v-.3s.21-.37.21-.37l11.91-11.49c.63-.61,1.44-.61,2.07,0l11.91,11.49c.21.2.25.53.16.76-.08.2-.35.41-.61.41l-1.57.02v10.13c0,1.05-.75,1.9-1.79,2h-6.3s0-6.9,0-6.9h-5.83s0,6.9,0,6.9l-6.15-.02c-.99,0-1.74-.88-1.83-1.82v-10.29s-1.44,0-1.44,0c-.34,0-.63-.2-.74-.5Z"/>
  <g>
    <path class="cls-3" d="M43.06,25.4c-1.43-1.38-6.02-5.37-11.47-5.37s-10.05,3.99-11.47,5.37c-.26.26-.26.67,0,.93,1.43,1.38,6.02,5.37,11.47,5.37s10.05-3.99,11.47-5.37c.26-.26.26-.67,0-.93Z"/>
    <g>
      <path class="cls-1" d="M43.06,25.4c.26.26.26.67,0,.93-1.43,1.38-6.02,5.37-11.47,5.37s-10.05-3.99-11.47-5.37c-.26-.26-.26-.67,0-.93,1.43-1.38,6.02-5.37,11.47-5.37s10.05,3.99,11.47,5.37Z"/>
      <circle class="cls-1" cx="31.56" cy="25.83" r="4.01"/>
      <circle class="cls-1" cx="31.56" cy="25.83" r="1.68"/>
    </g>
  </g>
</svg>