<?xml version="1.0" encoding="UTF-8"?>
<svg id="Capa_1" data-name="Capa 1" xmlns="http://www.w3.org/2000/svg" xmlns:xlink="http://www.w3.org/1999/xlink" viewBox="0 0 1250 500">
  <defs>
    <style>
      .cls-1 {
        fill: url(#Degradado_sin_nombre_71-2);
      }

      .cls-2 {
        fill: #fff;
      }

      .cls-3 {
        mask: url(#mask);
      }

      .cls-4 {
        fill: url(#radial-gradient);
      }

      .cls-5 {
        fill: #1b3760;
        font-family: ClashDisplay-Medium, 'Clash Display';
        font-size: 22.76px;
        font-weight: 500;
        letter-spacing: .2em;
      }

      .cls-6 {
        fill: url(#Degradado_sin_nombre_71);
      }

      .cls-7 {
        fill: #015498;
      }

      .cls-8 {
        opacity: .26;
      }
    </style>
    <radialGradient id="Degradado_sin_nombre_71" data-name="Degradado sin nombre 71" cx="839.89" cy="360.16" fx="839.89" fy="360.16" r="54.77" gradientUnits="userSpaceOnUse">
      <stop offset="0" stop-color="#045195"/>
      <stop offset=".98" stop-color="#1a3b64"/>
    </radialGradient>
    <radialGradient id="Degradado_sin_nombre_71-2" data-name="Degradado sin nombre 71" cx="616.73" cy="156.89" fx="616.73" fy="156.89" r="75.25" xlink:href="#Degradado_sin_nombre_71"/>
    <radialGradient id="radial-gradient" cx="1038.13" cy="805.67" fx="1038.13" fy="805.67" r="420.14" gradientUnits="userSpaceOnUse">
      <stop offset="0" stop-color="#fff"/>
      <stop offset=".04" stop-color="#f0f0f0"/>
      <stop offset=".25" stop-color="#a8a8a8"/>
      <stop offset=".45" stop-color="#6c6c6c"/>
      <stop offset=".63" stop-color="#3d3d3d"/>
      <stop offset=".78" stop-color="#1c1c1c"/>
      <stop offset=".91" stop-color="#070707"/>
      <stop offset="1" stop-color="#000"/>
    </radialGradient>
    <mask id="mask" x="589.67" y="355.98" width="896.91" height="899.38" maskUnits="userSpaceOnUse">
      <rect class="cls-4" x="617.99" y="385.54" width="840.27" height="840.27"/>
    </mask>
  </defs>
  <g>
    <text class="cls-5" transform="translate(414.7 439.58)"><tspan x="0" y="0">INTELIGENCIA PREVENTIVA</tspan></text>
    <path class="cls-7" d="M346.74,403.69v-65.67h36.36c15.58,0,25.38,8.92,25.38,24.5s-9.8,24.6-25.38,24.6h-17.94v16.56h-18.42ZM365.17,354.59v15.98h15.88c6.47,0,9.12-1.27,9.12-8.04s-2.65-7.94-9.12-7.94h-15.88ZM412.41,403.69v-65.67h38.32c17.35,0,26.46,7.25,26.46,20.09,0,10.39-5.19,16.56-17.74,18.13,0,0,7.38.96,11.37,10.98l8.14,16.47h-21.27l-7.84-16.07c-2.35-4.9-4.31-6.27-11.47-6.27h-7.55v22.35h-18.42ZM430.84,367.62h19.7c5.39,0,7.35-.98,7.35-6.57,0-5.19-1.96-6.47-7.35-6.47h-19.7v13.04ZM480.92,370.86c0-20.48,13.53-33.81,36.36-33.81s36.75,13.33,36.75,33.81-13.33,33.81-36.75,33.81-36.36-13.33-36.36-33.81ZM534.44,370.86c0-13.04-3.82-16.17-17.15-16.17s-16.76,3.14-16.76,16.17,3.43,16.17,16.76,16.17,17.15-3.14,17.15-16.17ZM596.24,404.49c-9.42,0-17.5-3.3-24.23-9.9-6.73-6.6-10.1-14.58-10.1-23.95s3.37-17.38,10.1-24.03c6.73-6.65,14.81-9.98,24.23-9.98s17.51,3.33,24.27,9.98c6.76,6.65,10.14,14.66,10.14,24.03v33.85h-34.41ZM613.09,370.64c0-4.74-1.63-8.81-4.88-12.21-3.26-3.41-7.26-5.11-12-5.11s-8.75,1.7-12,5.11c-3.25,3.41-4.88,7.48-4.88,12.21s1.64,8.72,4.92,12.1c3.28,3.38,7.27,5.07,11.96,5.07h16.88v-17.16ZM671.79,404.47c-9.58,0-18.92-3.62-25.61-10.46-6.36-6.51-9.54-14.32-9.54-23.46s3.36-17.41,10.08-24.08c6.72-6.67,14.8-10,24.24-10h8.61c8.51,0,11.42,11.78,3.67,15.31-.11.05-.21.1-.32.14-2.05.88-4.29,1.26-6.52,1.26h-5.44c-4.7,0-8.71,1.72-12.04,5.16-3.33,3.44-5,7.51-5,12.2s1.66,8.73,5,12.12c3.33,3.39,7.34,5.08,12.04,5.08h5.44c2.23,0,4.47.38,6.52,1.26.11.05.22.09.32.14,7.75,3.53,4.84,15.31-3.67,15.31h-7.78ZM744.93,392.11c-2.9-2.87-6.37-4.31-10.42-4.31h-6.15c-4.85,0-8.95-1.81-12.28-5.44-3.01-3.26-4.56-7.62-4.56-12.06v-13.78h16.4c4.61,0,8.34-3.74,8.34-8.34s-3.74-8.34-8.34-8.34h-16.4v-10.73c0-4.87-4.04-8.76-8.91-8.58h-.23c-4.61.18-8.26,3.97-8.26,8.59v41.52c0,9.11,3.17,16.91,9.52,23.41,6.68,6.83,16,10.44,25.56,10.44h20.09c0-5.38-1.45-9.5-4.35-12.37ZM753.53,339.83v61.13c0,1.95,1.58,3.53,3.53,3.53h13.85v-64.66c0-1.37-1.11-2.47-2.47-2.47h-12.43c-1.37,0-2.47,1.11-2.47,2.47ZM866.69,403.35c-9.42,0-17.5-3.3-24.23-9.9-6.73-6.6-10.1-14.58-10.1-23.95s3.37-17.38,10.1-24.03c6.73-6.65,14.81-9.98,24.23-9.98s17.51,3.33,24.27,9.98c6.76,6.65,10.14,14.66,10.14,24.03v33.85h-34.41ZM883.53,369.5c0-4.74-1.63-8.81-4.88-12.21-3.26-3.41-7.26-5.11-12-5.11s-8.75,1.7-12,5.11c-3.25,3.41-4.88,7.48-4.88,12.21s1.64,8.72,4.92,12.1c3.28,3.38,7.27,5.07,11.96,5.07h16.88v-17.16Z"/>
    <path class="cls-6" d="M804.72,404.7c-.9,0-1.81-.14-2.68-.43-2.42-.8-4.36-2.64-5.29-5.02l-19.26-50.55c-1.82-4.66-1.34-9.82,3.59-11.2,7.29-2.03,11.07.43,12.7,4.59l11.48,31.89c8.03-23.22,23.12-61.5,66.39-58.17,7.23.55,16.66,3.4,25.24,9.42,8.14,5.71,8.55,17.63.73,23.77h0c-7.45-11.65-21.11-15.68-27.27-16.14-29.73-2.26-40.61,22.33-50.03,49.93-3.7,10.82-5.93,17.36-11.05,20.58-1.38.87-2.96,1.31-4.56,1.31Z"/>
    <g>
      <path class="cls-1" d="M691.35,144.04h0c-2.53-15.13-9.53-28.46-21.13-39.94-14.83-14.66-32.64-21.99-53.39-21.99s-38.58,7.33-53.48,21.99c-14.9,14.66-22.35,32.31-22.35,52.95v61.57c0-20.64,7.42-38.23,22.25-52.78,5.17-5.07,10.72-9.2,16.61-12.5.76-8.87,4.29-16.61,10.59-23.21,7.17-7.5,15.99-11.26,26.45-11.26s19.28,3.76,26.45,11.26c3.99,4.17,6.82,8.82,8.59,13.9h0c1.41,4.06,2.16,8.38,2.16,13.02,0,9.01-2.76,16.93-8.27,23.75-.8.99-1.66,1.96-2.57,2.9-7.23,7.45-16.02,11.17-26.36,11.17h-29.29c-5.51,6.82-8.27,14.74-8.27,23.75,0,4.63.75,8.96,2.16,13.02h35.31c13.52,0,25.77-3.14,36.78-9.32,5.89-3.3,11.44-7.43,16.62-12.5,14.83-14.54,22.25-32.13,22.25-52.78,0-4.49-.42-8.81-1.12-13.02Z"/>
      <path class="cls-7" d="M670.21,209.84c-5.17,5.07-10.73,9.2-16.62,12.5-.76,8.87-4.29,16.61-10.59,23.21-7.17,7.5-15.99,11.26-26.45,11.26s-19.28-3.76-26.45-11.26c-3.99-4.17-6.82-8.82-8.59-13.9-1.41-4.06-2.16-8.38-2.16-13.02,0-9.01,2.76-16.93,8.27-23.75h0c.8-.99,1.66-1.96,2.57-2.9,7.23-7.45,16.02-11.17,26.36-11.17h29.29c5.51-6.82,8.27-14.74,8.27-23.75,0-4.63-.75-8.96-2.16-13.02h-35.31c-13.52,0-25.77,3.14-36.78,9.32-.1,1.21-.16,2.45-.16,3.7h0c0-1.26.06-2.49.16-3.7-5.89,3.3-11.44,7.43-16.61,12.5-14.83,14.54-22.25,32.13-22.25,52.78,0,4.49.42,8.81,1.12,13.02,2.53,15.13,9.53,28.46,21.13,39.94,14.83,14.66,32.63,21.99,53.39,21.99s38.58-7.33,53.48-21.99c14.9-14.66,22.35-32.31,22.35-52.95v-61.57c0,20.64-7.42,38.23-22.25,52.78Z"/>
    </g>
  </g>
  <g class="cls-3">
    <g class="cls-8">
      <g>
        <g>
          <path class="cls-2" d="M652.32,428.32h-41.76l-20.88-36.17,20.88-36.17h41.76l20.88,36.17-20.88,36.17ZM610.8,427.9h41.28l20.64-35.75-20.64-35.75h-41.28l-20.64,35.75,20.64,35.75Z"/>
          <path class="cls-2" d="M714.72,464.28h-41.76l-20.88-36.17,20.88-36.17h41.76l20.88,36.17-20.88,36.17ZM673.2,463.86h41.28l20.64-35.75-20.64-35.75h-41.28l-20.64,35.75,20.64,35.75Z"/>
        </g>
        <g>
          <path class="cls-2" d="M777.48,428.32h-41.76l-20.88-36.17,20.88-36.17h41.76l20.88,36.17-20.88,36.17ZM735.96,427.9h41.28l20.64-35.75-20.64-35.75h-41.28l-20.64,35.75,20.64,35.75Z"/>
          <path class="cls-2" d="M839.89,464.28h-41.76l-20.88-36.17,20.88-36.17h41.76l20.88,36.17-20.88,36.17ZM798.36,463.86h41.28l20.64-35.75-20.64-35.75h-41.28l-20.64,35.75,20.64,35.75Z"/>
        </g>
        <g>
          <path class="cls-2" d="M902.64,428.32h-41.76l-20.88-36.17,20.88-36.17h41.76l20.88,36.17-20.88,36.17ZM861.12,427.9h41.28l20.64-35.75-20.64-35.75h-41.28l-20.64,35.75,20.64,35.75Z"/>
          <path class="cls-2" d="M965.05,464.28h-41.76l-20.88-36.17,20.88-36.17h41.76l20.88,36.17-20.88,36.17ZM923.53,463.86h41.28l20.64-35.75-20.64-35.75h-41.28l-20.64,35.75,20.64,35.75Z"/>
        </g>
        <g>
          <path class="cls-2" d="M1027.81,428.32h-41.76l-20.88-36.17,20.88-36.17h41.76l20.88,36.17-20.88,36.17ZM986.28,427.9h41.28l20.64-35.75-20.64-35.75h-41.28l-20.64,35.75,20.64,35.75Z"/>
          <path class="cls-2" d="M1090.21,464.28h-41.76l-20.88-36.17,20.88-36.17h41.76l20.88,36.17-20.88,36.17ZM1048.69,463.86h41.28l20.64-35.75-20.64-35.75h-41.28l-20.64,35.75,20.64,35.75Z"/>
        </g>
        <g>
          <path class="cls-2" d="M1152.97,428.32h-41.76l-20.88-36.17,20.88-36.17h41.76l20.88,36.17-20.88,36.17ZM1111.45,427.9h41.28l20.64-35.75-20.64-35.75h-41.28l-20.64,35.75,20.64,35.75Z"/>
          <path class="cls-2" d="M1215.37,464.28h-41.76l-20.88-36.17,20.88-36.17h41.76l20.88,36.17-20.88,36.17ZM1173.85,463.86h41.28l20.64-35.75-20.64-35.75h-41.28l-20.64,35.75,20.64,35.75Z"/>
        </g>
        <path class="cls-2" d="M1278.13,428.32h-41.76l-20.88-36.17,20.88-36.17h41.76l20.88,36.17-20.88,36.17ZM1236.61,427.9h41.28l20.64-35.75-20.64-35.75h-41.28l-20.64,35.75,20.64,35.75Z"/>
      </g>
      <g>
        <g>
          <path class="cls-2" d="M652.32,500.24h-41.76l-20.88-36.17,20.88-36.17h41.76l20.88,36.17-20.88,36.17ZM610.8,499.82h41.28l20.64-35.75-20.64-35.75h-41.28l-20.64,35.75,20.64,35.75Z"/>
          <path class="cls-2" d="M714.72,536.19h-41.76l-20.88-36.17,20.88-36.17h41.76l20.88,36.17-20.88,36.17ZM673.2,535.77h41.28l20.64-35.75-20.64-35.75h-41.28l-20.64,35.75,20.64,35.75Z"/>
        </g>
        <g>
          <path class="cls-2" d="M777.48,500.24h-41.76l-20.88-36.17,20.88-36.17h41.76l20.88,36.17-20.88,36.17ZM735.96,499.82h41.28l20.64-35.75-20.64-35.75h-41.28l-20.64,35.75,20.64,35.75Z"/>
          <path class="cls-2" d="M839.89,536.19h-41.76l-20.88-36.17,20.88-36.17h41.76l20.88,36.17-20.88,36.17ZM798.36,535.77h41.28l20.64-35.75-20.64-35.75h-41.28l-20.64,35.75,20.64,35.75Z"/>
        </g>
        <g>
          <path class="cls-2" d="M902.64,500.24h-41.76l-20.88-36.17,20.88-36.17h41.76l20.88,36.17-20.88,36.17ZM861.12,499.82h41.28l20.64-35.75-20.64-35.75h-41.28l-20.64,35.75,20.64,35.75Z"/>
          <path class="cls-2" d="M965.05,536.19h-41.76l-20.88-36.17,20.88-36.17h41.76l20.88,36.17-20.88,36.17ZM923.53,535.77h41.28l20.64-35.75-20.64-35.75h-41.28l-20.64,35.75,20.64,35.75Z"/>
        </g>
        <g>
          <path class="cls-2" d="M1027.81,500.24h-41.76l-20.88-36.17,20.88-36.17h41.76l20.88,36.17-20.88,36.17ZM986.28,499.82h41.28l20.64-35.75-20.64-35.75h-41.28l-20.64,35.75,20.64,35.75Z"/>
          <path class="cls-2" d="M1090.21,536.19h-41.76l-20.88-36.17,20.88-36.17h41.76l20.88,36.17-20.88,36.17ZM1048.69,535.77h41.28l20.64-35.75-20.64-35.75h-41.28l-20.64,35.75,20.64,35.75Z"/>
        </g>
        <g>
          <path class="cls-2" d="M1152.97,500.24h-41.76l-20.88-36.17,20.88-36.17h41.76l20.88,36.17-20.88,36.17ZM1111.45,499.82h41.28l20.64-35.75-20.64-35.75h-41.28l-20.64,35.75,20.64,35.75Z"/>
          <path class="cls-2" d="M1215.37,536.19h-41.76l-20.88-36.17,20.88-36.17h41.76l20.88,36.17-20.88,36.17ZM1173.85,535.77h41.28l20.64-35.75-20.64-35.75h-41.28l-20.64,35.75,20.64,35.75Z"/>
        </g>
        <path class="cls-2" d="M1278.13,500.24h-41.76l-20.88-36.17,20.88-36.17h41.76l20.88,36.17-20.88,36.17ZM1236.61,499.82h41.28l20.64-35.75-20.64-35.75h-41.28l-20.64,35.75,20.64,35.75Z"/>
      </g>
      <g>
        <path class="cls-2" d="M652.32,572.15h-41.76l-20.88-36.17,20.88-36.17h41.76l20.88,36.17-20.88,36.17ZM610.8,571.73h41.28l20.64-35.75-20.64-35.75h-41.28l-20.64,35.75,20.64,35.75Z"/>
        <path class="cls-2" d="M777.48,572.15h-41.76l-20.88-36.17,20.88-36.17h41.76l20.88,36.17-20.88,36.17ZM735.96,571.73h41.28l20.64-35.75-20.64-35.75h-41.28l-20.64,35.75,20.64,35.75Z"/>
        <path class="cls-2" d="M902.64,572.15h-41.76l-20.88-36.17,20.88-36.17h41.76l20.88,36.17-20.88,36.17ZM861.12,571.73h41.28l20.64-35.75-20.64-35.75h-41.28l-20.64,35.75,20.64,35.75Z"/>
        <path class="cls-2" d="M1027.81,572.15h-41.76l-20.88-36.17,20.88-36.17h41.76l20.88,36.17-20.88,36.17ZM986.28,571.73h41.28l20.64-35.75-20.64-35.75h-41.28l-20.64,35.75,20.64,35.75Z"/>
        <path class="cls-2" d="M1152.97,572.15h-41.76l-20.88-36.17,20.88-36.17h41.76l20.88,36.17-20.88,36.17ZM1111.45,571.73h41.28l20.64-35.75-20.64-35.75h-41.28l-20.64,35.75,20.64,35.75Z"/>
        <path class="cls-2" d="M1278.13,572.15h-41.76l-20.88-36.17,20.88-36.17h41.76l20.88,36.17-20.88,36.17ZM1236.61,571.73h41.28l20.64-35.75-20.64-35.75h-41.28l-20.64,35.75,20.64,35.75Z"/>
      </g>
    </g>
  </g>
</svg>