<?xml version="1.0" encoding="UTF-8"?>
<svg id="Capa_1" data-name="Capa 1" xmlns="http://www.w3.org/2000/svg" viewBox="0 0 51.58 51.98">
  <defs>
    <style>
      .cls-1 {
        fill: #72caeb;
      }

      .cls-2 {
        fill: #fff;
      }

      .cls-3 {
        fill: #192845;
      }

      .cls-4 {
        fill: #47a2db;
      }
    </style>
  </defs>
  <circle class="cls-3" cx="26.51" cy="27.26" r="17.74"/>
  <path class="cls-3" d="M26.51,48.66c-11.8,0-21.4-9.6-21.4-21.4S14.72,5.86,26.51,5.86s21.4,9.6,21.4,21.4-9.6,21.4-21.4,21.4ZM26.51,6.86c-11.25,0-20.4,9.15-20.4,20.4s9.15,20.4,20.4,20.4,20.4-9.15,20.4-20.4S37.76,6.86,26.51,6.86Z"/>
  <path class="cls-4" d="M22.98,39.21l-6.08-.02c-1.1,0-2.04-.93-2.15-2.11v-8.88s-.81,0-.81,0c-.51,0-.96-.31-1.14-.78l-.03-.18v-.4l.34-.57,10.8-10.42c.77-.74,1.8-.74,2.57,0l10.8,10.42c.32.31.43.81.27,1.22-.15.39-.58.69-1.01.69h-.93s0,8.7,0,8.7c0,1.22-.87,2.19-2.07,2.31h-6.27s0-6.25,0-6.25h-4.29s0,6.26,0,6.26ZM21.98,31.95h6.29s0,6.26,0,6.26h5.22c.63-.07,1.12-.62,1.12-1.32v-9.68s1.92-.02,1.92-.02c.03,0,.08-.04.1-.07,0-.02,0-.1-.04-.13l-10.8-10.42c-.38-.36-.81-.36-1.19,0l-10.75,10.37-.09.18s.1.08.18.08h1.81v9.84c.05.53.51,1.15,1.16,1.15l5.07.02v-6.26Z"/>
  <path class="cls-2" d="M41.26,26.84c-1.3-1.25-5.46-4.87-10.41-4.87s-9.11,3.61-10.41,4.87c-.24.23-.24.61,0,.84,1.3,1.25,5.46,4.87,10.41,4.87s9.11-3.61,10.41-4.87c.24-.23.24-.61,0-.84Z"/>
  <path class="cls-1" d="M30.85,32.8c-5.08,0-9.38-3.78-10.58-4.94-.17-.16-.26-.37-.26-.6,0-.23.09-.44.26-.6,1.2-1.16,5.5-4.94,10.58-4.94s9.38,3.78,10.58,4.94h0c.17.16.26.37.26.6s-.09.44-.26.6c-1.2,1.16-5.5,4.94-10.58,4.94ZM30.85,22.22c-4.89,0-9.07,3.67-10.23,4.8-.07.06-.1.15-.1.24,0,.09.04.18.1.24,1.16,1.12,5.34,4.8,10.23,4.8s9.07-3.67,10.23-4.8c.07-.06.1-.15.1-.24s-.04-.18-.1-.24c-1.17-1.12-5.34-4.8-10.23-4.8Z"/>
  <path class="cls-4" d="M30.85,32.8c-5.08,0-9.38-3.78-10.58-4.94-.17-.16-.26-.37-.26-.6,0-.23.09-.44.26-.6,1.2-1.16,5.5-4.94,10.58-4.94s9.38,3.78,10.58,4.94h0c.17.16.26.37.26.6s-.09.44-.26.6c-1.2,1.16-5.5,4.94-10.58,4.94ZM30.85,22.22c-4.89,0-9.07,3.67-10.23,4.8-.07.06-.1.15-.1.24,0,.09.04.18.1.24,1.16,1.12,5.34,4.8,10.23,4.8s9.07-3.67,10.23-4.8c.07-.06.1-.15.1-.24s-.04-.18-.1-.24c-1.17-1.12-5.34-4.8-10.23-4.8Z"/>
  <path class="cls-4" d="M30.82,31.12c-2.14,0-3.89-1.74-3.89-3.89s1.74-3.89,3.89-3.89,3.89,1.74,3.89,3.89-1.74,3.89-3.89,3.89ZM30.82,23.85c-1.87,0-3.39,1.52-3.39,3.39s1.52,3.39,3.39,3.39,3.39-1.52,3.39-3.39-1.52-3.39-3.39-3.39Z"/>
  <path class="cls-4" d="M30.82,29.01c-.98,0-1.78-.8-1.78-1.78s.8-1.78,1.78-1.78,1.78.8,1.78,1.78-.8,1.78-1.78,1.78ZM30.82,25.96c-.71,0-1.28.57-1.28,1.28s.57,1.28,1.28,1.28,1.28-.57,1.28-1.28-.57-1.28-1.28-1.28Z"/>
</svg>