<?xml version="1.0" encoding="UTF-8"?>
<svg id="Capa_1" data-name="Capa 1" xmlns="http://www.w3.org/2000/svg" viewBox="0 0 51.58 51.98">
  <defs>
    <style>
      .cls-1 {
        fill: #dadada;
      }

      .cls-2 {
        fill: none;
        stroke: #878787;
        stroke-miterlimit: 10;
      }

      .cls-3 {
        fill: #878787;
      }
    </style>
  </defs>
  <circle class="cls-1" cx="25.79" cy="25.46" r="17.74"/>
  <circle class="cls-2" cx="25.79" cy="25.46" r="20.9"/>
  <path class="cls-3" d="M29.68,33.02h-10.8c-1.45,0-2.63-1.18-2.63-2.63v-9.87c0-1.45,1.18-2.63,2.63-2.63h10.8c1.45,0,2.63,1.18,2.63,2.63v9.87c0,1.45-1.18,2.63-2.63,2.63ZM18.88,18.89c-.9,0-1.63.73-1.63,1.63v9.87c0,.9.73,1.63,1.63,1.63h10.8c.9,0,1.63-.73,1.63-1.63v-9.87c0-.9-.73-1.63-1.63-1.63h-10.8Z"/>
  <path class="cls-3" d="M35.85,30.82c-.22,0-.44-.05-.65-.16l-3.63-1.91.46-.88,3.63,1.91c.18.09.33.02.39-.01.06-.04.19-.14.19-.34v-7.69c0-.22-.11-.42-.3-.54-.19-.12-.42-.13-.62-.03l-3.3,1.65-.45-.89,3.3-1.65c.51-.26,1.1-.23,1.59.07.49.3.77.82.77,1.39v7.69c0,.49-.25.94-.67,1.19-.22.13-.47.2-.72.2Z"/>
</svg>