<?xml version="1.0" encoding="UTF-8"?>
<svg id="Capa_1" data-name="Capa 1" xmlns="http://www.w3.org/2000/svg" viewBox="0 0 51.58 51.98">
  <defs>
    <style>
      .cls-1 {
        fill: #dadada;
      }

      .cls-2 {
        fill: none;
        stroke: #878787;
        stroke-miterlimit: 10;
      }

      .cls-3 {
        fill: #878787;
      }
    </style>
  </defs>
  <circle class="cls-1" cx="26.4" cy="27.26" r="17.74"/>
  <circle class="cls-2" cx="26.34" cy="27.08" r="20.9"/>
  <path class="cls-3" d="M33.67,38.86h-6.85c-.25,0-.45-.2-.45-.45V14.7c0-.25.2-.45.45-.45h6.85c.25,0,.45.2.45.45v23.71c0,.25-.2.45-.45.45ZM27.79,37.89h4.9c.25,0,.45-.2.45-.45V15.68c0-.25-.2-.45-.45-.45h-4.9c-.25,0-.45.2-.45.45v21.77c0,.25.2.45.45.45Z"/>
  <path class="cls-3" d="M25.36,38.86h-6.85c-.25,0-.45-.2-.45-.45V14.7c0-.25.2-.45.45-.45h6.85c.25,0,.45.2.45.45v23.71c0,.25-.2.45-.45.45ZM19.49,37.89h4.9c.25,0,.45-.2.45-.45V15.68c0-.25-.2-.45-.45-.45h-4.9c-.25,0-.45.2-.45.45v21.77c0,.25.2.45.45.45Z"/>
</svg>