<?xml version="1.0" encoding="UTF-8"?>
<svg id="Capa_1" data-name="Capa 1" xmlns="http://www.w3.org/2000/svg" viewBox="0 0 51.58 51.98">
  <defs>
    <style>
      .cls-1 {
        fill: #dadada;
      }

      .cls-2 {
        fill: #fff;
      }

      .cls-3 {
        fill: none;
        stroke: #878787;
        stroke-miterlimit: 10;
      }

      .cls-4 {
        fill: #878787;
      }
    </style>
  </defs>
  <circle class="cls-1" cx="25.79" cy="27.81" r="17.74"/>
  <circle class="cls-3" cx="25.79" cy="27.81" r="20.9"/>
  <path class="cls-4" d="M27.09,14.53h-7.7c-1.36,0-2.46,1.11-2.46,2.46v15.98c0,1.36,1.11,2.46,2.46,2.46h7.7c1.36,0,2.46-1.11,2.46-2.46v-15.98c0-1.36-1.11-2.46-2.46-2.46ZM19.38,15.21h7.7c.99,0,1.79.8,1.79,1.79v.24h-11.28v-.24c0-.99.8-1.79,1.79-1.79ZM28.87,17.91v13.92h-11.28v-13.92h11.28ZM27.09,34.76h-7.7c-.99,0-1.79-.8-1.79-1.79v-.47h11.28v.47c0,.99-.8,1.79-1.79,1.79Z"/>
  <path class="cls-4" d="M21.74,16.47h2.96c.19,0,.34-.15.34-.34s-.15-.34-.34-.34h-2.96c-.19,0-.34.15-.34.34s.15.34.34.34Z"/>
  <path class="cls-2" d="M21.63,33.57l3.16,5.63s1.49,2.7,4.77,2.47c0,0,4.2-.17,4.77-3.39v-5.57s.03-1.58-1.78-1.03c0,0-.34-1.67-2.18-.86,0,0-.83-1.41-2.38-.34v-3.22s.08-1.41-1.47-1.38c-1.08.02-1.08,1.38-1.08,1.38l.04,7.97-1.93-2.74s-.83-1.42-1.92-.8c-.94.53,0,1.9,0,1.9Z"/>
  <path class="cls-4" d="M34.11,31.49c-.34-.26-.79-.33-1.34-.22-.12-.27-.35-.63-.76-.85-.43-.22-.94-.23-1.53-.02-.19-.22-.53-.52-1.02-.63-.37-.08-.75-.04-1.14.12v-2.63s.04-.74-.45-1.25c-.32-.33-.79-.48-1.36-.49-1.11.02-1.41,1.13-1.41,1.72l.04,6.9-1.29-1.84c-.34-.59-1.29-1.54-2.38-.93-.29.16-.49.41-.56.72-.16.71.34,1.5.44,1.64l3.15,5.62c.06.11,1.51,2.66,4.66,2.66.14,0,.28,0,.42-.01.04,0,4.47-.22,5.09-3.73v-5.57s0-.8-.56-1.22ZM29.53,41.34c-3.01.22-4.39-2.2-4.45-2.3l-3.16-5.63s-.01-.02-.02-.03c-.12-.17-.43-.74-.34-1.12.03-.13.1-.22.23-.29.13-.07.26-.11.39-.11.61,0,1.06.75,1.09.81l1.93,2.74c.09.12.24.17.38.13.14-.04.24-.18.23-.32l-.04-7.97c0-.11.03-1.03.75-1.04.39-.02.67.09.86.28.29.29.27.74.27.76v2.98s0,0,0,.01v2.5c0,.19.15.34.34.34s.34-.15.34-.34v-2.07c.36-.21.69-.3.99-.23.38.08.62.36.72.49v1.82c0,.19.15.34.34.34s.34-.15.34-.34v-1.69c.4-.14.74-.16.99-.02.41.21.52.72.52.72,0,0,0,0,0,0,0,0-.01.01-.01.02v1.01c0,.19.15.34.34.34s.34-.15.34-.34v-.84c.29-.06.6-.07.81.09.29.22.29.67.29.68v5.52c-.51,2.91-4.41,3.11-4.46,3.11Z"/>
</svg>