<?xml version="1.0" encoding="UTF-8"?>
<svg id="Capa_1" data-name="Capa 1" xmlns="http://www.w3.org/2000/svg" viewBox="0 0 51.58 51.98">
  <defs>
    <style>
      .cls-1 {
        fill: #dadada;
      }

      .cls-2 {
        fill: none;
        stroke: #878787;
        stroke-miterlimit: 10;
      }

      .cls-3 {
        fill: #878787;
      }
    </style>
  </defs>
  <circle class="cls-1" cx="25.79" cy="24.76" r="17.74"/>
  <circle class="cls-2" cx="25.79" cy="24.76" r="20.9"/>
  <path class="cls-3" d="M37.53,30.58H14.61c-1.89,0-3.43-1.54-3.43-3.43v-5.03c0-1.89,1.54-3.43,3.43-3.43h22.92c1.89,0,3.43,1.54,3.43,3.43v5.03c0,1.89-1.54,3.43-3.43,3.43ZM14.61,19.49c-1.45,0-2.62,1.18-2.62,2.62v5.03c0,1.45,1.18,2.62,2.62,2.62h22.92c1.45,0,2.62-1.18,2.62-2.62v-5.03c0-1.45-1.18-2.62-2.62-2.62H14.61Z"/>
  <path class="cls-3" d="M35.02,27.34c-1.39,0-2.51-1.13-2.51-2.51s1.13-2.51,2.51-2.51,2.51,1.13,2.51,2.51-1.13,2.51-2.51,2.51ZM35.02,23.12c-.94,0-1.71.77-1.71,1.71s.77,1.71,1.71,1.71,1.71-.77,1.71-1.71-.77-1.71-1.71-1.71Z"/>
  <g>
    <path class="cls-3" d="M14.74,26.95v-3.88h1.78l1.5,2.24v-2.24h1.46v3.88h-1.69l-1.63-2.27v2.27h-1.42Z"/>
    <path class="cls-3" d="M23.56,23.06c.34,0,.61.02.81.05.2.03.36.08.48.15.15.09.26.2.33.35.08.14.11.31.11.5,0,.23-.06.43-.17.61s-.27.3-.47.38c.17.07.29.16.36.27.07.11.11.29.12.56,0,.03,0,.07,0,.12.02.51.09.79.2.85v.06h-1.67c-.05-.08-.08-.24-.08-.48,0-.14,0-.25-.02-.32-.02-.14-.06-.24-.14-.3-.08-.06-.21-.09-.4-.09h-.9v1.18h-1.53v-3.88h2.96ZM22.13,24.74h.88c.23,0,.39-.03.48-.08s.14-.15.14-.27-.04-.21-.13-.26c-.09-.05-.26-.07-.53-.07h-.84v.69Z"/>
    <path class="cls-3" d="M27.25,26.95l-1.72-3.88h1.7l.82,2.6.87-2.6h1.68l-1.79,3.88h-1.57Z"/>
  </g>
</svg>