<?xml version="1.0" encoding="UTF-8"?>
<svg id="Capa_1" data-name="Capa 1" xmlns="http://www.w3.org/2000/svg" viewBox="0 0 51.58 51.98">
  <defs>
    <style>
      .cls-1 {
        fill: #dadada;
      }

      .cls-2 {
        fill: none;
        stroke: #878787;
        stroke-miterlimit: 10;
      }

      .cls-3 {
        fill: #878787;
      }
    </style>
  </defs>
  <circle class="cls-1" cx="25.82" cy="27.81" r="17.74"/>
  <circle class="cls-2" cx="25.79" cy="27.81" r="20.9"/>
  <path class="cls-3" d="M31.78,36.68h-11.65c-1.9,0-3.44-1.54-3.44-3.44v-11.65c0-1.9,1.54-3.44,3.44-3.44h11.65c1.9,0,3.44,1.54,3.44,3.44v11.65c0,1.9-1.54,3.44-3.44,3.44ZM20.14,19.13c-1.36,0-2.47,1.1-2.47,2.46v11.65c0,1.36,1.11,2.46,2.47,2.46h11.65c1.36,0,2.47-1.1,2.47-2.46v-11.65c0-1.36-1.11-2.46-2.47-2.46h-11.65Z"/>
  <path class="cls-3" d="M30.22,34.1h-8.4c-1.37,0-2.48-1.11-2.48-2.48v-8.4c0-1.37,1.11-2.48,2.48-2.48h8.4c1.37,0,2.48,1.11,2.48,2.48v8.4c0,1.37-1.11,2.48-2.48,2.48ZM21.82,21.44c-.98,0-1.78.8-1.78,1.78v8.4c0,.98.8,1.78,1.78,1.78h8.4c.98,0,1.78-.8,1.78-1.78v-8.4c0-.98-.8-1.78-1.78-1.78h-8.4Z"/>
</svg>