<?xml version="1.0" encoding="UTF-8"?>
<svg id="Capa_1" data-name="Capa 1" xmlns="http://www.w3.org/2000/svg" viewBox="0 0 51.58 51.98">
  <defs>
    <style>
      .cls-1 {
        fill: #dadada;
      }

      .cls-2 {
        fill: none;
        stroke: #878787;
        stroke-miterlimit: 10;
      }

      .cls-3 {
        fill: #878787;
      }
    </style>
  </defs>
  <circle class="cls-1" cx="25.79" cy="28.2" r="17.74"/>
  <circle class="cls-2" cx="25.79" cy="28.2" r="20.9"/>
  <path class="cls-3" d="M13.38,27.21l.04-7.84c.32-.78,1.13-1.37,1.75-1.72,2.08-1.16,4.95-1.66,6.99-1.87,2.71-.28,5.44-.25,8.12.1,1.52.2,3.73.62,5.59,1.49,1.21.57,1.98,1.24,2.3,1.99l.04.19v7.63s-.86-.85-.86-.85c-.38-.38-.78-.68-1.3-.97-.57-.31-1.18-.56-1.98-.83-3.57-1.11-8.2-1.42-12.7-.84-1.18.15-2.35.4-3.57.75-1.48.48-2.66.98-3.55,1.89l-.86.87ZM14.38,19.67v5.25c.95-.67,2.05-1.08,3.12-1.42,1.28-.37,2.5-.63,3.73-.79,4.64-.6,9.43-.28,13.13.88h0c.86.29,1.52.57,2.15.91.25.14.47.28.67.42v-5.24c-.24-.48-.86-.97-1.76-1.39-1.74-.82-3.83-1.21-5.29-1.4-2.61-.34-5.26-.37-7.89-.1-1.95.2-4.67.67-6.6,1.75-.64.36-1.09.76-1.28,1.14Z"/>
  <path class="cls-3" d="M25.77,42.79c-1.43,0-2.86-.29-4.21-.89-1.63-.73-3.02-1.87-4.01-3.29-1.06-1.52-1.62-3.2-1.62-4.86v-5.02s.16-.15.16-.15c1.44-1.22,3.41-1.76,4.98-2.09,3.21-.62,6.57-.6,9.71.06,1.47.33,3.33.86,4.7,2.04l.17.15v4.89c-.01,2.16-.86,4.28-2.41,5.96h0c-1.92,2.09-4.68,3.21-7.48,3.21ZM16.93,29.19v4.55c.01,1.46.51,2.94,1.45,4.29.88,1.27,2.13,2.29,3.59,2.95,3.6,1.61,7.93.75,10.54-2.09h0c1.38-1.5,2.13-3.38,2.14-5.29v-4.43c-1.18-.93-2.79-1.38-4.08-1.67-2.96-.62-6.27-.64-9.3-.05-1.37.29-3.09.75-4.35,1.73ZM25.79,40.24c-3.21,0-5.83-2.61-5.83-5.83s2.61-5.83,5.83-5.83,5.83,2.61,5.83,5.83-2.61,5.83-5.83,5.83ZM25.79,29.59c-2.66,0-4.83,2.17-4.83,4.83s2.17,4.83,4.83,4.83,4.83-2.17,4.83-4.83-2.17-4.83-4.83-4.83Z"/>
  <path class="cls-3" d="M16.22,30.64l-.72-.38c-.72-.38-1.25-.79-1.64-1.3-.61-.78-.61-1.79-.01-2.58.67-.89,1.93-1.62,3.74-2.17,3.38-1.04,7.78-1.37,12.09-.88,1.89.21,6.45.93,8.08,3.05.62.81.6,1.85-.06,2.65-.4.49-.91.88-1.6,1.24l-.73.38v-1.7c-.01-.05-.05-.12-.11-.17-.58-.49-1.28-.88-2.1-1.21h0c-3.13-1.24-7.62-1.56-11.69-.85-1.2.21-2.27.52-3.28.95-.67.28-1.26.63-1.81,1.07-.12.1-.15.16-.15.26l-.02,1.64ZM25.72,24.1c-2.86,0-5.6.36-7.85,1.06-1.58.49-2.7,1.12-3.24,1.82-.33.43-.32.94,0,1.36.17.21.36.41.6.58.02-.39.19-.71.52-.97.62-.5,1.29-.89,2.04-1.21,1.08-.46,2.22-.79,3.5-1.01,4.25-.75,8.93-.4,12.23.9h0c.92.36,1.7.81,2.38,1.38.28.25.44.58.44.91.22-.17.41-.34.57-.54.36-.44.38-.97.04-1.41-1.14-1.48-4.57-2.34-7.4-2.66-1.28-.14-2.57-.21-3.84-.21Z"/>
  <path class="cls-3" d="M25.79,39.52c-2.81,0-5.1-2.29-5.1-5.1s2.29-5.1,5.1-5.1,5.1,2.29,5.1,5.1-2.29,5.1-5.1,5.1ZM25.79,30.32c-2.26,0-4.1,1.84-4.1,4.1s1.84,4.1,4.1,4.1,4.1-1.84,4.1-4.1-1.84-4.1-4.1-4.1ZM25.79,37.45c-1.67,0-3.04-1.36-3.04-3.04s1.36-3.04,3.04-3.04,3.04,1.36,3.04,3.04-1.36,3.04-3.04,3.04ZM25.79,32.38c-1.12,0-2.04.91-2.04,2.04s.91,2.04,2.04,2.04,2.04-.91,2.04-2.04-.91-2.04-2.04-2.04Z"/>
</svg>