<?xml version="1.0" encoding="UTF-8"?>
<svg id="Capa_1" data-name="Capa 1" xmlns="http://www.w3.org/2000/svg" viewBox="0 0 51.58 51.98">
  <defs>
    <style>
      .cls-1 {
        fill: #dadada;
      }

      .cls-2 {
        fill: none;
        stroke: #878787;
        stroke-miterlimit: 10;
      }

      .cls-3 {
        fill: #878787;
      }
    </style>
  </defs>
  <circle class="cls-1" cx="25.82" cy="26.06" r="17.74"/>
  <circle class="cls-2" cx="25.79" cy="26.03" r="20.9"/>
  <path class="cls-3" d="M29.24,38.36h-6.85c-.25,0-.45-.2-.45-.45V14.2c0-.25.2-.45.45-.45h6.85c.25,0,.45.2.45.45v23.71c0,.25-.2.45-.45.45ZM23.37,37.39h4.9c.25,0,.45-.2.45-.45V15.17c0-.25-.2-.45-.45-.45h-4.9c-.25,0-.45.2-.45.45v21.77c0,.25.2.45.45.45Z"/>
  <path class="cls-3" d="M40.4,26.56h-6.13c-.28,0-.5-.22-.5-.5s.22-.5.5-.5h6.13c.28,0,.5.22.5.5s-.22.5-.5.5Z"/>
  <path class="cls-3" d="M38.68,32.48c-.07,0-.14-.01-.21-.05l-4.53-2.09c-.25-.12-.36-.41-.25-.66.12-.25.42-.36.66-.25l4.53,2.09c.25.12.36.41.25.66-.08.18-.27.29-.45.29Z"/>
  <path class="cls-3" d="M34,22.96c-.22,0-.43-.15-.48-.38-.07-.27.09-.54.36-.61l4.84-1.22c.27-.07.54.09.61.36.07.27-.09.54-.36.61l-4.84,1.22s-.08.02-.12.02Z"/>
  <path class="cls-3" d="M17.36,27.47h-6.13c-.28,0-.5-.22-.5-.5s.22-.5.5-.5h6.13c.28,0,.5.22.5.5s-.22.5-.5.5Z"/>
  <path class="cls-3" d="M17.63,23.61s-.09,0-.13-.02l-4.82-1.3c-.27-.07-.42-.35-.35-.61.07-.27.34-.42.61-.35l4.82,1.3c.27.07.42.35.35.61-.06.22-.26.37-.48.37Z"/>
  <path class="cls-3" d="M12.8,32.29c-.22,0-.43-.15-.48-.38-.07-.27.09-.54.36-.61l4.84-1.22c.28-.07.54.09.61.36.07.27-.09.54-.36.61l-4.84,1.22s-.08.02-.12.02Z"/>
</svg>