<?xml version="1.0" encoding="UTF-8"?>
<svg id="Capa_1" data-name="Capa 1" xmlns="http://www.w3.org/2000/svg" viewBox="0 0 51.58 51.98">
  <defs>
    <style>
      .cls-1 {
        fill: #dadada;
      }

      .cls-2 {
        fill: #fff;
        stroke: #b2b2b2;
      }

      .cls-2, .cls-3 {
        stroke-miterlimit: 10;
      }

      .cls-4 {
        stroke-linecap: round;
        stroke-linejoin: round;
      }

      .cls-4, .cls-3 {
        fill: none;
        stroke: #878787;
      }

      .cls-5 {
        fill: #878787;
      }
    </style>
  </defs>
  <circle class="cls-1" cx="25.79" cy="27.04" r="17.74"/>
  <circle class="cls-3" cx="25.79" cy="27.04" r="20.9"/>
  <path class="cls-5" d="M25.79,34.99c-7.49,0-13.83-5.56-15.59-7.27-.27-.26-.42-.61-.42-.98s.15-.72.42-.98c1.77-1.71,8.1-7.27,15.59-7.27s13.83,5.56,15.59,7.27h0c.27.26.42.61.42.98s-.15.72-.42.98c-1.76,1.71-8.1,7.27-15.59,7.27ZM25.79,19.5c-7.11,0-13.2,5.35-14.9,6.99-.07.07-.11.16-.11.26s.04.19.11.26c1.7,1.64,7.78,6.99,14.9,6.99s13.2-5.35,14.9-6.99c.07-.07.11-.16.11-.26s-.04-.19-.11-.26h0c-1.7-1.64-7.78-6.99-14.9-6.99Z"/>
  <path class="cls-5" d="M25.75,32.54c-3.21,0-5.83-2.62-5.83-5.83s2.61-5.83,5.83-5.83,5.83,2.62,5.83,5.83-2.61,5.83-5.83,5.83ZM25.75,21.88c-2.66,0-4.83,2.17-4.83,4.83s2.17,4.83,4.83,4.83,4.83-2.17,4.83-4.83-2.17-4.83-4.83-4.83Z"/>
  <path class="cls-5" d="M25.75,29.44c-1.51,0-2.74-1.23-2.74-2.74s1.23-2.74,2.74-2.74,2.74,1.23,2.74,2.74-1.23,2.74-2.74,2.74ZM25.75,24.97c-.96,0-1.74.78-1.74,1.74s.78,1.74,1.74,1.74,1.74-.78,1.74-1.74-.78-1.74-1.74-1.74Z"/>
  <circle class="cls-2" cx="28.79" cy="33.24" r="6.36"/>
  <polyline class="cls-4" points="26.36 33.1 29.23 35.48 31.22 29.89"/>
</svg>