<?xml version="1.0" encoding="UTF-8"?>
<svg xmlns="http://www.w3.org/2000/svg" xmlns:xlink="http://www.w3.org/1999/xlink" viewBox="0 0 128.18 130.79">
  <defs>
    <style>
      .cls-1 {
        fill: url(#Degradado_sin_nombre_185-2);
        opacity: .7;
      }

      .cls-1, .cls-2, .cls-3, .cls-4, .cls-5 {
        mix-blend-mode: overlay;
      }

      .cls-6 {
        fill: #002549;
      }

      .cls-7 {
        fill: none;
        stroke: #55dfff;
        stroke-miterlimit: 10;
        stroke-width: .5px;
      }

      .cls-2 {
        fill: url(#Degradado_sin_nombre_185);
      }

      .cls-8 {
        isolation: isolate;
      }

      .cls-3 {
        fill: url(#Degradado_sin_nombre_185-5);
      }

      .cls-9 {
        fill: #fff;
        font-family: ClashDisplay-Semibold, 'Clash Display';
        font-size: 55.45px;
        font-weight: 600;
        letter-spacing: .05em;
      }

      .cls-4 {
        fill: url(#Degradado_sin_nombre_185-3);
      }

      .cls-5 {
        fill: url(#Degradado_sin_nombre_185-4);
      }
    </style>
    <radialGradient id="Degradado_sin_nombre_185" data-name="Degradado sin nombre 185" cx="64.12" cy="66.37" fx="64.12" fy="66.37" r="51.85" gradientUnits="userSpaceOnUse">
      <stop offset=".02" stop-color="#045195"/>
      <stop offset="1" stop-color="#0070a9"/>
    </radialGradient>
    <radialGradient id="Degradado_sin_nombre_185-2" data-name="Degradado sin nombre 185" cy="66.03" fy="66.03" r="55.8" xlink:href="#Degradado_sin_nombre_185"/>
    <radialGradient id="Degradado_sin_nombre_185-3" data-name="Degradado sin nombre 185" cx="64.12" cy="67.25" fx="64.12" fy="67.25" r="48.39" xlink:href="#Degradado_sin_nombre_185"/>
    <radialGradient id="Degradado_sin_nombre_185-4" data-name="Degradado sin nombre 185" cx="64.12" cy="67.25" fx="64.12" fy="67.25" r="39.83" xlink:href="#Degradado_sin_nombre_185"/>
    <radialGradient id="Degradado_sin_nombre_185-5" data-name="Degradado sin nombre 185" cx="64.12" cy="64.58" fx="64.12" fy="64.58" r="28.62" xlink:href="#Degradado_sin_nombre_185"/>
  </defs>
  <g class="cls-8">
    <g id="Capa_1" data-name="Capa 1">
      <circle class="cls-6" cx="64.09" cy="66.23" r="60.67"/>
      <g>
        <text class="cls-9" transform="translate(44.37 82.38)"><tspan x="0" y="0">2</tspan></text>
        <path class="cls-2" d="M101.09,104.22c-6.51,6.51-14.63,11.19-23.47,13.55l-1.41-5.31c7.91-2.11,15.17-6.3,21-12.12,8.84-8.84,13.7-20.59,13.7-33.09,0-1.6-.08-3.21-.24-4.8l5.47-.56c.18,1.77.27,3.57.27,5.35,0,13.97-5.44,27.1-15.32,36.97ZM97.24,34.2l-.04-.04c-8.84-8.84-20.59-13.7-33.09-13.7s-24.25,4.87-33.09,13.7c-8.84,8.84-13.7,20.59-13.7,33.09s4.87,24.25,13.7,33.09c2.42,2.42,5.1,4.58,7.96,6.4l-2.96,4.64c-3.2-2.04-6.19-4.44-8.89-7.15-9.88-9.88-15.31-23.01-15.31-36.97s5.44-27.1,15.31-36.97c9.88-9.88,23.01-15.31,36.97-15.31s27.1,5.44,36.97,15.31l.04.04-3.89,3.89Z"/>
        <path class="cls-1" d="M104.03,107.22c-3.63,3.63-7.71,6.73-12.13,9.24l-.47.26-8.69-15.36.47-.26c3.04-1.72,5.84-3.86,8.34-6.35,7.32-7.33,11.36-17.07,11.36-27.42,0-4.38-.73-8.69-2.16-12.81l-.18-.51,16.67-5.81.18.51c2.09,5.99,3.15,12.26,3.15,18.62,0,15.07-5.87,29.25-16.53,39.91ZM101.92,54.66c1.36,4.08,2.05,8.33,2.05,12.65,0,10.65-4.15,20.65-11.67,28.18-2.44,2.44-5.17,4.54-8.11,6.26l7.64,13.5c4.16-2.41,8.01-5.37,11.44-8.79,10.46-10.46,16.22-24.36,16.22-39.15,0-6.07-.98-12.04-2.92-17.76l-14.65,5.11ZM91.92,40.27l-.38-.38c-7.33-7.33-17.06-11.36-27.42-11.36-7.98,0-15.63,2.39-22.13,6.92l-.44.31-10.09-14.48.44-.31c9.48-6.6,20.62-10.09,32.22-10.09,15.07,0,29.25,5.87,39.91,16.53l.38.38-12.48,12.48ZM41.82,34.27c6.58-4.46,14.28-6.81,22.3-6.81,10.47,0,20.32,4.01,27.8,11.3l10.97-10.97c-10.41-10.22-24.16-15.84-38.77-15.84-11.2,0-21.97,3.32-31.17,9.6l8.87,12.73ZM47.23,121.17l-.51-.16c-8.42-2.72-16.21-7.49-22.5-13.79-10.66-10.66-16.53-24.83-16.53-39.91,0-2.54.17-5.11.51-7.62l.07-.53,17.49,2.37-.07.53c-.24,1.73-.35,3.5-.35,5.25,0,10.36,4.03,20.1,11.36,27.42,4.39,4.39,9.59,7.58,15.45,9.48l.51.16-5.43,16.8ZM24.56,62.45l-15.37-2.08c-.29,2.3-.44,4.63-.44,6.95,0,14.79,5.76,28.69,16.22,39.15,6.05,6.05,13.5,10.66,21.57,13.36l4.77-14.76c-5.81-1.97-10.98-5.18-15.37-9.57-7.53-7.53-11.67-17.54-11.67-28.18,0-1.62.1-3.25.3-4.86Z"/>
        <path class="cls-4" d="M64.12,115.64c-26.68,0-48.39-21.71-48.39-48.39s21.71-48.39,48.39-48.39,48.39,21.71,48.39,48.39-21.71,48.39-48.39,48.39ZM64.12,110.78c24,0,43.53-19.53,43.53-43.53s-19.53-43.53-43.53-43.53-43.53,19.53-43.53,43.53,19.53,43.53,43.53,43.53Z"/>
        <path class="cls-7" d="M64.12,124.41c-31.52,0-57.16-25.64-57.16-57.16S32.6,10.09,64.12,10.09s57.16,25.64,57.16,57.16-25.64,57.16-57.16,57.16ZM64.12,123.47c31,0,56.23-25.22,56.23-56.23S95.12,11.02,64.12,11.02,7.89,36.25,7.89,67.25s25.22,56.23,56.23,56.23ZM64.12,118.71c-28.38,0-51.47-23.09-51.47-51.47S35.74,15.78,64.12,15.78s51.47,23.09,51.47,51.47-23.09,51.47-51.47,51.47ZM64.12,117.78c27.86,0,50.53-22.67,50.53-50.53s-22.67-50.53-50.53-50.53S13.59,39.39,13.59,67.25s22.67,50.53,50.53,50.53Z"/>
        <path class="cls-5" d="M103.95,67.25v.08h-5.86v-.08c0-18.73-15.24-33.97-33.97-33.97-2.82,0-5.62.35-8.32,1.03l-1.43-5.68c3.17-.8,6.45-1.2,9.75-1.2,21.96,0,39.83,17.87,39.83,39.83ZM30.15,67.25c0,18.73,15.24,33.97,33.97,33.97,2.8,0,5.59-.34,8.28-1.02l1.42,5.68c-3.16.79-6.42,1.19-9.71,1.19-21.96,0-39.83-17.87-39.83-39.83v-.04h5.86v.04Z"/>
        <path class="cls-3" d="M81.51,88.15c6.24-5.2,9.82-12.82,9.82-20.9,0-11.47-7.27-21.77-18.08-25.63l1.2-3.35c12.23,4.37,20.44,16.01,20.44,28.98,0,9.15-4.05,17.76-11.1,23.64l-2.28-2.74ZM33.36,67.25c0-4.56.98-8.96,2.91-13.06l3.22,1.52c-1.71,3.63-2.57,7.51-2.57,11.54,0,7.3,2.87,14.16,8.07,19.32l-2.51,2.53c-5.88-5.83-9.12-13.59-9.12-21.85Z"/>
      </g>
    </g>
  </g>
</svg>