<?xml version="1.0" encoding="UTF-8"?>
<svg id="Capa_1" data-name="Capa 1" xmlns="http://www.w3.org/2000/svg" viewBox="0 0 51.58 51.98">
  <defs>
    <style>
      .cls-1 {
        fill: #192845;
      }

      .cls-2 {
        fill: #47a2db;
      }
    </style>
  </defs>
  <circle class="cls-2" cx="25.82" cy="27.53" r="17.74"/>
  <path class="cls-1" d="M25.79,48.66c-11.8,0-21.4-9.6-21.4-21.4S13.99,5.86,25.79,5.86s21.4,9.6,21.4,21.4-9.6,21.4-21.4,21.4ZM25.79,6.86c-11.25,0-20.4,9.15-20.4,20.4s9.15,20.4,20.4,20.4,20.4-9.15,20.4-20.4S37.04,6.86,25.79,6.86Z"/>
  <path class="cls-1" d="M27.58,24.25c1.24-.7,2.09-2.02,2.09-3.55,0-2.26-1.84-4.09-4.09-4.09s-4.09,1.84-4.09,4.09c0,1.53.85,2.84,2.09,3.55-2.47.84-4.26,3.15-4.26,5.9v6.26h12.51v-6.26c0-2.75-1.79-5.06-4.26-5.9ZM22.33,20.71c0-1.8,1.46-3.26,3.26-3.26s3.26,1.46,3.26,3.26c0,1.68-1.28,3.05-2.92,3.22-.12,0-.23-.03-.34-.03s-.23.03-.34.03c-1.63-.18-2.91-1.55-2.91-3.22ZM31.01,35.57h-10.85v-5.43c0-2.87,2.25-5.21,5.08-5.39.12,0,.23.03.34.03s.23-.03.34-.03c2.83.18,5.08,2.52,5.08,5.39v5.43Z"/>
</svg>