<?xml version="1.0" encoding="UTF-8"?>
<svg id="Capa_1" data-name="Capa 1" xmlns="http://www.w3.org/2000/svg" viewBox="0 0 51.58 51.98">
  <defs>
    <style>
      .cls-1 {
        fill: #192845;
      }

      .cls-2 {
        fill: #47a2db;
      }
    </style>
  </defs>
  <circle class="cls-2" cx="25.82" cy="26.47" r="17.74"/>
  <path class="cls-1" d="M25.79,47.85c-11.8,0-21.4-9.6-21.4-21.4S13.99,5.04,25.79,5.04s21.4,9.6,21.4,21.4-9.6,21.4-21.4,21.4ZM25.79,6.04C14.54,6.04,5.39,15.2,5.39,26.45s9.15,20.4,20.4,20.4,20.4-9.15,20.4-20.4S37.04,6.04,25.79,6.04Z"/>
  <path class="cls-1" d="M28.77,15.06h-6.41c-1.68,0-3.05,1.37-3.05,3.05v15.55c0,1.68,1.37,3.05,3.05,3.05h6.41c1.68,0,3.05-1.37,3.05-3.05v-15.55c0-1.68-1.37-3.05-3.05-3.05ZM30.99,18.11v3.76h-5.01v-5.99h2.79c1.22,0,2.22,1,2.22,2.22ZM20.14,28.23v-5.52h5.01v5.52h-5.01ZM25.98,22.71h5.01v5.52h-5.01v-5.52ZM22.36,15.89h2.79v5.99h-5.01v-3.76c0-1.22,1-2.22,2.22-2.22ZM28.77,35.88h-6.41c-1.22,0-2.22-1-2.22-2.22v-4.6h10.85v4.6c0,1.22-1,2.22-2.22,2.22Z"/>
</svg>