<?xml version="1.0" encoding="UTF-8"?>
<svg id="Capa_1" data-name="Capa 1" xmlns="http://www.w3.org/2000/svg" viewBox="0 0 51.58 51.98">
  <defs>
    <style>
      .cls-1 {
        fill: #192845;
      }

      .cls-2 {
        fill: #47a2db;
      }
    </style>
  </defs>
  <circle class="cls-2" cx="25.82" cy="27.34" r="17.74"/>
  <path class="cls-1" d="M25.79,48.74c-11.8,0-21.4-9.6-21.4-21.4S13.99,5.94,25.79,5.94s21.4,9.6,21.4,21.4-9.6,21.4-21.4,21.4ZM25.79,6.94c-11.25,0-20.4,9.15-20.4,20.4s9.15,20.4,20.4,20.4,20.4-9.15,20.4-20.4S37.04,6.94,25.79,6.94Z"/>
  <path class="cls-1" d="M31.78,36.21h-11.65c-1.9,0-3.44-1.54-3.44-3.44v-11.65c0-1.9,1.54-3.44,3.44-3.44h11.65c1.9,0,3.44,1.54,3.44,3.44v11.65c0,1.9-1.54,3.44-3.44,3.44ZM20.14,18.66c-1.36,0-2.47,1.1-2.47,2.46v11.65c0,1.36,1.11,2.46,2.47,2.46h11.65c1.36,0,2.47-1.1,2.47-2.46v-11.65c0-1.36-1.11-2.46-2.47-2.46h-11.65Z"/>
  <path class="cls-1" d="M30.22,33.63h-8.4c-1.37,0-2.48-1.11-2.48-2.48v-8.4c0-1.37,1.11-2.48,2.48-2.48h8.4c1.37,0,2.48,1.11,2.48,2.48v8.4c0,1.37-1.11,2.48-2.48,2.48ZM21.82,20.97c-.98,0-1.78.8-1.78,1.78v8.4c0,.98.8,1.78,1.78,1.78h8.4c.98,0,1.78-.8,1.78-1.78v-8.4c0-.98-.8-1.78-1.78-1.78h-8.4Z"/>
</svg>