<?xml version="1.0" encoding="UTF-8"?>
<svg id="Capa_1" data-name="Capa 1" xmlns="http://www.w3.org/2000/svg" viewBox="0 0 51.58 51.98">
  <defs>
    <style>
      .cls-1 {
        fill: #192845;
      }

      .cls-2 {
        fill: #47a2db;
      }
    </style>
  </defs>
  <circle class="cls-2" cx="25.82" cy="26.56" r="17.74"/>
  <path class="cls-1" d="M25.79,47.96c-11.8,0-21.4-9.6-21.4-21.4S13.99,5.16,25.79,5.16s21.4,9.6,21.4,21.4-9.6,21.4-21.4,21.4ZM25.79,6.16C14.54,6.16,5.39,15.31,5.39,26.56s9.15,20.4,20.4,20.4,20.4-9.15,20.4-20.4S37.04,6.16,25.79,6.16Z"/>
  <path class="cls-1" d="M26.71,39.42h-1.71c-3.18,0-5.76-2.59-5.76-5.76v-12.99c0-3.18,2.58-5.76,5.76-5.76h1.71c3.18,0,5.76,2.58,5.76,5.76v12.99c0,3.18-2.58,5.76-5.76,5.76ZM25,15.78c-2.69,0-4.88,2.19-4.88,4.88v12.99c0,2.69,2.19,4.89,4.88,4.89h1.71c2.69,0,4.88-2.19,4.88-4.89v-12.99c0-2.69-2.19-4.88-4.88-4.88h-1.71Z"/>
  <path class="cls-1" d="M25.78,35.45c-1.49,0-2.71-1.21-2.71-2.71s1.21-2.7,2.71-2.7,2.7,1.21,2.7,2.7-1.21,2.71-2.7,2.71ZM25.78,30.92c-1.01,0-1.83.82-1.83,1.83s.82,1.83,1.83,1.83,1.83-.82,1.83-1.83-.82-1.83-1.83-1.83Z"/>
</svg>