<?xml version="1.0" encoding="UTF-8"?>
<svg id="Capa_1" data-name="Capa 1" xmlns="http://www.w3.org/2000/svg" viewBox="0 0 51.58 51.98">
  <defs>
    <style>
      .cls-1 {
        fill: #192845;
      }

      .cls-2 {
        fill: #47a2db;
      }
    </style>
  </defs>
  <circle class="cls-2" cx="26.4" cy="27.26" r="17.74"/>
  <path class="cls-1" d="M26.34,48.48c-11.8,0-21.4-9.6-21.4-21.4S14.54,5.68,26.34,5.68s21.4,9.6,21.4,21.4-9.6,21.4-21.4,21.4ZM26.34,6.68C15.1,6.68,5.94,15.83,5.94,27.08s9.15,20.4,20.4,20.4,20.4-9.15,20.4-20.4S37.59,6.68,26.34,6.68Z"/>
  <path class="cls-1" d="M33.67,38.86h-6.85c-.25,0-.45-.2-.45-.45V14.7c0-.25.2-.45.45-.45h6.85c.25,0,.45.2.45.45v23.71c0,.25-.2.45-.45.45ZM27.79,37.89h4.9c.25,0,.45-.2.45-.45V15.68c0-.25-.2-.45-.45-.45h-4.9c-.25,0-.45.2-.45.45v21.77c0,.25.2.45.45.45Z"/>
  <path class="cls-1" d="M25.36,38.86h-6.85c-.25,0-.45-.2-.45-.45V14.7c0-.25.2-.45.45-.45h6.85c.25,0,.45.2.45.45v23.71c0,.25-.2.45-.45.45ZM19.49,37.89h4.9c.25,0,.45-.2.45-.45V15.68c0-.25-.2-.45-.45-.45h-4.9c-.25,0-.45.2-.45.45v21.77c0,.25.2.45.45.45Z"/>
</svg>